<svg version="1.1" id="Layer_1" xmlns="http://www.w3.org/2000/svg" xmlns:xlink="http://www.w3.org/1999/xlink" x="0px" y="0px"
	 width="100%" viewBox="0 0 431 220" enable-background="new 0 0 431 220" xml:space="preserve">
<path fill="#FDFEFE" opacity="1.000000" stroke="none" 
	d="
M262.000000,221.000000 
	C174.666702,221.000000 87.833397,221.000000 1.000070,221.000000 
	C1.000047,147.666718 1.000047,74.333450 1.000023,1.000129 
	C144.666550,1.000086 288.333099,1.000086 431.999756,1.000043 
	C431.999817,74.333199 431.999817,147.666397 431.999908,220.999786 
	C375.500000,221.000000 319.000000,221.000000 262.000000,221.000000 
M389.968323,143.970566 
	C389.968323,143.970566 389.870178,143.916245 390.392670,143.754471 
	C390.547729,143.439468 390.702759,143.124466 390.906586,142.902756 
	C390.906586,142.902756 390.803650,142.880692 391.390656,142.649811 
	C391.519958,142.265091 391.649231,141.880356 391.786346,141.197861 
	C391.786346,141.197861 392.011017,141.002304 392.481598,140.773056 
	C392.614746,140.461609 392.747894,140.150177 392.927795,139.927170 
	C392.927795,139.927170 392.829742,139.907349 393.408661,139.643906 
	C393.526062,139.250961 393.643463,138.858017 393.689697,138.204773 
	C393.689697,138.204773 393.870880,138.004791 394.584991,137.679337 
	C397.415070,130.847946 398.228973,123.971092 394.845886,116.496437 
	C394.831177,116.135109 394.816498,115.773773 394.938904,114.493546 
	C395.027313,107.341286 393.636841,105.008598 388.004120,102.997208 
	C388.004120,102.997208 388.039612,102.936371 388.035919,102.240562 
	C387.365417,101.491997 386.694885,100.743431 385.996368,100.002121 
	C385.996368,100.002121 386.002838,99.973816 385.859802,99.529083 
	C385.692108,99.246811 385.450531,99.060051 384.571350,98.619583 
	C383.706329,97.604408 382.841339,96.589233 381.743927,95.263603 
	C381.539032,95.085983 381.301025,94.993881 381.002106,95.004295 
	C381.002106,95.004295 381.009003,94.972702 380.787598,94.505249 
	C380.488892,94.350578 380.190155,94.195908 379.288818,93.797401 
	C377.870117,92.788254 376.451447,91.779106 374.870453,90.101028 
	C374.074280,89.820076 373.278137,89.539131 372.196228,89.255226 
	C372.196228,89.255226 372.002838,89.044830 371.701477,88.526917 
	C371.330994,88.410263 370.960541,88.293610 370.266663,88.204468 
	C370.266663,88.204468 370.006897,88.009926 369.602051,87.455811 
	C368.716522,87.313225 367.830963,87.170639 366.381866,87.042366 
	C365.879852,86.809807 365.377838,86.577240 364.651855,85.552994 
	C359.195374,82.280281 342.928741,84.860863 339.082184,89.619858 
	C338.994507,89.728333 339.035431,89.940765 338.790070,90.294807 
	C338.790070,90.294807 338.504150,90.219917 337.884918,90.209541 
	C337.595215,90.479340 337.305511,90.749146 337.000000,91.000000 
	C337.000000,91.000000 337.014282,91.020004 336.306580,90.967133 
	C335.185089,91.490738 334.063568,92.014343 332.402222,92.853943 
	C331.995453,92.933571 331.588654,93.013199 330.515320,93.047836 
	C330.054993,93.445976 329.594666,93.844116 329.118103,94.121986 
	C329.118103,94.121986 329.210175,94.201073 328.440582,94.120621 
	C326.292084,95.112595 324.143555,96.104568 321.757904,97.274757 
	C321.757904,97.274757 321.468689,97.208740 320.867645,97.212601 
	C320.577637,97.469315 320.287628,97.726036 319.995575,98.004074 
	C319.995575,98.004074 319.978119,97.989861 319.234589,97.949654 
	C317.823730,98.663162 316.412842,99.376678 314.607147,100.376053 
	C314.298706,100.539871 313.981812,100.558281 312.805206,100.185783 
	C309.870758,101.117729 306.936310,102.049683 303.354248,103.154289 
	C302.910645,103.128448 302.467010,103.102608 301.469269,102.459648 
	C297.325684,102.837563 293.182098,103.215477 288.246735,103.794434 
	C287.181854,103.670982 286.116974,103.547523 284.744659,102.789009 
	C280.154907,102.200020 275.565186,101.611038 270.997711,100.998222 
	C270.997711,100.998222 270.987183,101.027817 270.617218,100.511726 
	C270.210175,100.450340 269.803131,100.388954 269.194275,100.431870 
	C269.194275,100.431870 268.994385,100.323830 268.673004,99.621162 
	C267.245605,99.199173 265.818207,98.777191 263.662872,98.406982 
	C257.213745,95.400909 250.336411,93.057312 244.417160,89.231392 
	C235.826599,83.678856 228.062149,76.866943 219.705383,70.929939 
	C203.505981,59.421204 186.850891,56.947304 169.123413,68.130127 
	C160.438354,73.608818 154.609192,81.528336 147.653229,89.319664 
	C147.444107,89.896652 147.234970,90.473640 146.894669,91.486206 
	C146.761780,91.772896 146.554901,91.988655 145.667984,92.321976 
	C145.533707,92.703133 145.399429,93.084290 145.247528,93.770180 
	C145.247528,93.770180 145.051193,94.003914 144.324081,94.059761 
	C143.319565,95.535789 142.315048,97.011818 141.194916,98.964165 
	C140.930634,99.371208 140.666336,99.778244 139.718048,100.391647 
	C139.556396,101.046394 139.394745,101.701149 139.165009,102.705093 
	C139.165009,102.705093 138.927948,102.970383 138.224136,103.092529 
	C137.159592,106.379196 135.536880,109.613968 135.224869,112.970589 
	C135.013535,115.244133 136.467957,117.964264 140.733109,116.063499 
	C141.491013,116.112732 142.248901,116.161964 143.503860,116.686539 
	C148.936722,116.546318 150.171066,114.856514 148.732895,109.247475 
	C148.732895,109.247475 148.945282,109.001091 149.463150,108.740631 
	C149.582916,108.387451 149.702698,108.034271 149.928299,107.324799 
	C149.928299,107.324799 150.193634,107.064529 150.863464,106.908333 
	C151.140717,106.120804 151.417969,105.333267 151.830124,104.050560 
	C152.170715,103.678398 152.511307,103.306236 153.391083,102.727791 
	C153.616165,102.221947 153.841248,101.716103 154.324677,100.778679 
	C154.533646,100.516907 154.742615,100.255135 155.643234,99.920319 
	C155.991943,99.191116 156.340652,98.461914 156.715897,97.956017 
	C156.715897,97.956017 156.721619,97.731720 157.277740,97.673119 
	C157.408539,97.350739 157.539337,97.028351 157.831833,96.970169 
	C157.831833,96.970169 157.658005,96.704163 158.295853,96.615768 
	C158.513306,96.051544 158.730774,95.487320 159.051300,94.485756 
	C159.158966,94.192703 159.345245,93.963570 160.237350,93.677299 
	C160.412033,93.312027 160.586731,92.946762 160.911438,92.081207 
	C161.255493,91.710373 161.599533,91.339539 162.655930,90.922272 
	C163.379913,89.514305 164.103882,88.106346 165.066971,86.169250 
	C165.868011,85.657440 166.669067,85.145630 168.222336,84.791321 
	C168.823151,83.881042 169.423950,82.970764 170.231186,81.565948 
	C170.675323,81.285515 171.119476,81.005081 172.266846,80.854553 
	C172.853806,80.265152 173.440765,79.675743 174.430237,78.634789 
	C175.266205,78.086533 176.102173,77.538277 177.406845,76.879616 
	C177.714294,76.729843 177.915390,76.490669 178.453125,75.889008 
	C178.784195,75.791779 179.115265,75.694550 180.285416,75.800957 
	C184.616882,75.186630 188.973923,73.948868 193.272934,74.125359 
	C198.000717,74.319450 202.675079,75.814720 207.883621,76.897148 
	C208.266861,77.249107 208.650116,77.601074 209.115295,78.679024 
	C209.912552,79.000862 210.709793,79.322701 211.806168,79.657997 
	C211.806168,79.657997 212.036469,79.849350 212.319885,80.406479 
	C212.709213,80.496765 213.098526,80.587051 213.799759,80.682877 
	C213.799759,80.682877 214.048706,80.870888 214.120895,81.583633 
	C214.862076,81.987923 215.603241,82.392220 216.838516,82.969986 
	C217.225998,83.310616 217.613464,83.651253 218.215607,84.476257 
	C218.533386,84.596222 218.851181,84.716194 219.030396,84.922455 
	C219.030396,84.922455 219.132477,84.795067 219.329926,85.385880 
	C219.889252,85.588516 220.448593,85.791145 221.000000,86.000000 
	C221.000000,86.000000 221.004730,85.991280 221.187790,86.480797 
	C221.488800,86.632217 221.789795,86.783630 222.012772,86.990608 
	C222.012772,86.990608 222.059082,86.906746 222.233231,87.422203 
	C222.554733,87.553688 222.876236,87.685165 223.054443,87.896843 
	C223.054443,87.896843 223.156784,87.768425 223.313904,88.365585 
	C223.858887,88.588943 224.403885,88.812302 224.996414,88.998497 
	C224.996414,88.998497 224.969284,89.052284 225.051575,89.694420 
	C225.710846,90.125351 226.370117,90.556282 227.576050,91.241997 
	C228.394073,91.807610 229.212112,92.373215 230.074448,93.675301 
	C231.857986,94.687225 233.641525,95.699150 235.753937,96.731544 
	C235.753937,96.731544 236.023712,96.920692 236.083908,97.651566 
	C237.805710,98.717552 239.527527,99.783546 241.783798,100.980408 
	C242.181870,101.337845 242.579926,101.695282 243.075256,102.747002 
	C245.199661,103.726372 247.324051,104.705750 249.766418,105.684921 
	C249.766418,105.684921 250.037277,105.851494 250.350525,106.397377 
	C250.746674,106.463860 251.142838,106.530350 252.052155,106.640083 
	C252.361847,106.783859 252.671524,106.927635 253.023453,107.886955 
	C254.405167,111.729996 257.329773,109.500061 260.146210,109.484848 
	C260.480286,109.512123 260.776367,109.632652 261.155731,110.659500 
	C262.656494,110.968796 264.157257,111.278091 266.264435,111.518143 
	C266.836975,111.712944 267.409515,111.907745 268.111755,112.796646 
	C270.393341,113.244843 272.674896,113.693039 275.636749,114.056732 
	C276.072998,114.178062 276.509277,114.299393 277.140839,115.025726 
	C278.427795,115.026443 279.714752,115.027168 281.855927,114.978157 
	C283.555542,115.098679 285.255127,115.219200 287.205292,116.040062 
	C290.153900,115.836281 293.102509,115.632507 296.887787,115.190453 
	C298.920380,115.118553 300.952942,115.046654 303.500946,115.548386 
	C307.669006,114.366005 311.837097,113.183632 316.428436,111.747276 
	C316.428436,111.747276 316.905945,111.619965 316.905945,111.619965 
	C316.905945,111.619965 317.397247,111.673065 318.299683,111.821930 
	C323.764587,110.835480 330.018921,111.599495 333.498016,104.900345 
	C333.852661,104.860779 334.207306,104.821205 335.277008,104.899803 
	C335.833771,104.544044 336.390503,104.188278 337.309418,103.375839 
	C337.861847,103.219162 338.414246,103.062485 339.289520,103.416893 
	C340.207703,102.697853 341.125885,101.978821 342.410583,100.989136 
	C342.410583,100.989136 342.862579,100.931625 343.613129,101.004311 
	C344.403381,100.546196 345.193665,100.088081 346.387665,99.320755 
	C346.872620,99.187927 347.357605,99.055099 348.730591,99.008957 
	C355.513977,97.632210 361.996826,98.453087 368.222412,101.525909 
	C369.044800,101.931816 370.134277,101.796577 371.029388,101.987480 
	C371.029388,101.987480 371.057343,101.887901 371.298157,102.433838 
	C371.659241,102.567810 372.020294,102.701782 372.889130,102.927116 
	C373.277069,103.247169 373.665009,103.567215 374.072998,104.597908 
	C375.088776,105.367805 376.104523,106.137711 377.016113,106.982964 
	C377.016113,106.982964 377.092346,106.879425 377.084656,107.597443 
	C378.116241,108.345100 379.147858,109.092758 380.127350,109.968521 
	C380.127350,109.968521 380.126343,109.830231 380.233185,110.361961 
	C380.526184,110.551353 380.819153,110.740738 381.002380,110.974846 
	C381.002380,110.974846 381.094757,110.900528 381.026642,111.688034 
	C382.932800,118.453560 386.889160,124.885849 384.067688,132.400650 
	C383.463409,134.010101 383.593018,135.895126 383.438141,138.139374 
	C383.390259,138.476761 383.240631,138.760483 382.305359,139.053329 
	C381.536743,140.050415 380.768127,141.047516 379.816010,142.260452 
	C379.816010,142.260452 379.535278,142.222382 378.873138,142.266678 
	C378.616760,142.601105 378.360413,142.935516 377.776215,143.771088 
	C376.656525,144.575211 375.536835,145.379333 373.814148,146.221848 
	C373.559052,146.513168 373.303925,146.804489 373.023499,147.003937 
	C373.023499,147.003937 373.085480,147.076340 372.393402,147.002441 
	C371.930145,147.002441 371.466919,147.002441 370.492004,146.998215 
	C370.321472,146.995270 370.150940,146.992340 369.990662,146.167053 
	C370.234497,144.913086 370.920258,143.547836 370.637878,142.426376 
	C369.845001,139.277451 368.653046,136.229004 367.178314,132.845184 
	C366.758545,132.287430 366.338776,131.729660 365.920349,130.407578 
	C364.777100,129.687210 363.633881,128.966858 361.957275,128.213165 
	C361.651886,128.036835 361.346527,127.860497 360.842896,127.022377 
	C358.908966,126.924187 356.975037,126.825989 354.157684,126.864815 
	C351.773712,126.910301 349.389740,126.955788 346.523804,126.445320 
	C342.512329,125.318092 340.037781,126.876404 338.663452,131.336456 
	C338.095062,131.888794 337.526642,132.441116 336.225983,133.130814 
	C335.852173,134.489548 335.478333,135.848282 335.068634,137.630081 
	C335.068634,137.630081 334.863098,138.001602 334.266205,138.339798 
	C331.733948,141.011612 331.294220,143.857498 333.803223,147.602188 
	C333.836182,148.078308 333.869110,148.554428 333.443451,149.368149 
	C333.950714,150.246552 334.457977,151.124954 335.153412,152.308075 
	C335.153412,152.308075 335.147461,152.666183 335.202606,153.237793 
	C335.472656,153.492905 335.742706,153.748001 336.221741,154.235840 
	C336.221741,154.235840 336.217285,154.548615 336.141205,155.309891 
	C336.842712,155.835098 337.544189,156.360291 338.803619,157.113403 
	C339.519592,157.785706 340.235565,158.457993 341.092987,159.820404 
	C343.388428,160.278793 345.683899,160.737183 348.647797,161.100113 
	C349.084564,161.192673 349.521301,161.285217 350.210419,162.075836 
	C355.310730,161.786758 360.493561,161.949707 365.480438,161.039246 
	C368.476562,160.492249 371.167053,158.271149 374.203033,156.641083 
	C374.203033,156.641083 374.445984,156.742630 375.094482,156.760071 
	C375.398224,156.476685 375.701965,156.193298 376.210052,155.712006 
	C376.210052,155.712006 376.492554,155.745010 377.166504,155.868408 
	C377.794067,155.374771 378.421631,154.881134 379.428650,154.067520 
	C379.428650,154.067520 379.912720,153.957657 380.551147,153.979385 
	C381.012360,153.606827 381.473602,153.234268 381.960724,152.949890 
	C381.960724,152.949890 381.875793,152.914810 382.387543,152.802979 
	C382.589142,152.529694 382.790771,152.256424 383.000000,152.000610 
	C383.000000,152.000610 382.984100,151.989090 383.713898,152.012161 
	C387.750824,150.664612 388.427917,149.844498 387.979065,146.372925 
	C388.322693,145.915421 388.666321,145.457916 389.478058,144.781616 
	C389.621918,144.479401 389.765808,144.177170 389.968323,143.970566 
M326.622681,136.918152 
	C326.817627,136.839325 327.012573,136.760483 327.082916,136.694046 
	C327.082916,136.694046 327.204529,136.723724 327.143707,137.378830 
	C327.544708,137.735382 327.945679,138.091934 328.346680,138.448486 
	C328.474213,137.854401 328.601715,137.260300 328.677002,136.671860 
	C328.677002,136.671860 328.685333,136.620010 329.080597,136.774353 
	C329.208466,136.724487 329.336334,136.674622 329.464203,136.624741 
	C329.331909,136.422882 329.199646,136.221024 329.035400,135.350616 
	C329.091125,134.908524 329.146881,134.466431 329.511780,133.816818 
	C329.382172,133.534744 329.252563,133.252670 328.972870,132.187988 
	C328.978821,131.127289 328.984772,130.066589 329.352997,128.812408 
	C329.156250,128.582901 328.959503,128.353378 328.382263,127.962173 
	C328.382263,127.962173 328.063019,127.699471 327.827942,127.004959 
	C324.558929,126.188271 321.310699,125.253403 318.000488,124.670654 
	C317.445618,124.572960 316.622131,126.001030 315.150085,126.881668 
	C314.099640,126.913818 313.049164,126.945976 311.715942,126.535042 
	C311.112244,126.880348 310.508545,127.225647 309.298248,127.874832 
	C307.905762,128.932343 306.513275,129.989853 304.400757,131.348160 
	C301.876129,136.081299 302.419952,139.507278 306.552216,142.241013 
	C307.075623,142.743607 307.599060,143.246201 308.334656,144.347580 
	C308.723755,144.454636 309.112823,144.561691 309.807861,144.692780 
	C309.807861,144.692780 310.037079,144.896835 310.079712,145.641327 
	C310.742981,147.148849 311.406250,148.656372 312.013000,150.035446 
	C308.359650,150.474823 305.237579,150.850311 302.089325,151.632477 
	C302.089325,151.632477 301.934601,152.009491 301.383789,152.523346 
	C301.839752,154.697968 302.295715,156.872604 303.005707,159.358078 
	C303.005707,159.358078 303.123138,159.741943 303.309631,160.489670 
	C306.839264,161.554901 310.343018,162.731995 313.927307,163.560974 
	C314.446045,163.680969 315.351013,162.130936 316.695648,161.168030 
	C317.124573,161.162979 317.553467,161.157944 318.197479,161.456528 
	C318.467438,161.311447 318.737366,161.166382 319.522919,160.834106 
	C319.885284,160.799683 320.247620,160.765259 321.319366,160.879166 
	C321.863586,160.505737 322.407806,160.132294 323.375153,159.391891 
	C324.148407,158.881226 324.921692,158.370575 326.305847,157.744415 
	C326.564606,157.214432 326.823364,156.684448 327.221283,155.676453 
	C327.350433,155.352325 327.571289,155.112747 328.441315,154.656326 
	C328.543152,154.259079 328.644989,153.861832 328.582733,152.879349 
	C328.634857,152.278183 328.687012,151.677002 329.357544,150.669159 
	C328.824615,149.467087 328.291718,148.264999 327.583954,146.877060 
	C327.583954,146.877060 327.628113,146.625748 327.817383,145.845596 
	C326.599945,142.331573 324.741882,139.673691 320.156342,140.355026 
	C320.156342,140.355026 319.955383,140.179779 319.750916,139.610718 
	C319.394257,139.459351 319.037598,139.307999 318.304688,138.758347 
	C318.335785,138.407700 318.366882,138.057053 318.765625,136.839157 
	C318.838379,136.533722 318.911133,136.228271 319.643799,135.714996 
	C320.102203,135.733658 320.560577,135.752335 321.149567,136.192123 
	C321.424072,136.041321 321.698608,135.890518 322.730469,135.631699 
	C323.485657,135.736420 324.240875,135.841125 325.191010,136.413803 
	C325.459869,136.610153 325.728699,136.806503 326.622681,136.918152 
M248.930878,128.516632 
	C248.287155,128.338348 247.643448,128.160065 246.347824,127.912910 
	C245.939819,127.762535 245.531830,127.612152 244.874573,126.896431 
	C243.579620,126.876587 242.284668,126.856743 240.103699,126.906090 
	C237.730774,126.902321 235.357864,126.898560 232.523102,126.384270 
	C229.646576,126.822830 226.195129,126.163589 225.200943,130.192154 
	C225.200943,130.192154 225.187607,130.194000 224.640320,130.239883 
	C224.431824,130.524353 224.223343,130.808807 223.599075,131.541306 
	C222.749405,132.694717 221.899734,133.848129 220.372696,135.306320 
	C219.941803,138.542023 219.510910,141.777710 219.166321,145.665649 
	C219.146225,146.103149 219.126129,146.540649 218.545593,147.431976 
	C217.688553,149.912918 217.517136,152.134140 220.982819,153.527740 
	C221.075790,153.865616 221.168762,154.203491 221.284912,155.179688 
	C221.802963,155.476562 222.321014,155.773438 223.249023,156.341263 
	C223.513901,156.535004 223.764648,156.745575 224.094360,157.672348 
	C224.856628,158.031876 225.618896,158.391403 226.814758,159.020126 
	C227.206512,159.346542 227.598251,159.672974 228.105652,160.698090 
	C229.740540,160.844589 231.375427,160.991089 233.929520,161.109558 
	C237.614471,161.118988 241.299438,161.128418 245.327118,161.544205 
	C245.878235,161.322968 246.429337,161.101730 247.514740,160.671249 
	C248.044357,160.457336 248.573975,160.243423 249.830734,159.897522 
	C250.540237,157.963287 251.481735,156.078491 251.906830,154.083649 
	C252.606689,150.799591 251.015976,149.743973 247.758911,149.996002 
	C243.085342,150.357620 238.380447,150.314590 233.622406,150.372086 
	C233.622406,150.372086 233.534668,150.327988 233.752701,149.547989 
	C233.134415,147.323532 233.132568,145.742752 236.281158,145.900253 
	C240.397522,146.106155 244.545670,146.150131 248.653305,145.870148 
	C250.906036,145.716599 254.879868,144.996506 255.000824,144.111404 
	C255.401443,141.179825 254.404312,138.057205 253.763748,134.714508 
	C253.763748,134.714508 253.747940,134.370834 253.777451,133.785675 
	C253.509933,133.523041 253.242432,133.260406 252.763367,132.770996 
	C252.763367,132.770996 252.702728,132.466843 252.651657,131.812195 
	C252.279236,131.639603 251.906799,131.467010 251.226135,131.226059 
	C251.226135,131.226059 250.999863,131.005875 250.929886,130.348541 
	C250.249466,129.930145 249.569061,129.511734 249.000793,129.016876 
	C249.000793,129.016876 248.904922,129.113220 248.930878,128.516632 
M294.003235,129.001114 
	C294.003235,129.001114 294.031403,128.947586 293.950073,128.280594 
	C292.305023,127.824844 290.660004,127.369087 288.123657,126.952621 
	C285.743347,126.939781 283.363007,126.926941 280.606628,126.436150 
	C279.710693,126.865181 278.814789,127.294212 277.447693,127.997688 
	C277.101135,128.102585 276.754608,128.207474 275.729736,128.100388 
	C274.505341,128.004059 273.280975,127.907745 271.314636,127.786491 
	C270.583984,127.679443 269.853363,127.572395 268.828552,126.861382 
	C266.847443,127.084099 264.866364,127.306824 262.243561,127.721764 
	C261.799011,127.714981 261.354492,127.708199 260.425140,127.283211 
	C259.645752,128.298203 258.253906,129.278000 258.193207,130.334290 
	C257.933685,134.849442 257.951599,139.390884 258.097473,143.915359 
	C258.195343,146.950653 258.677734,149.973557 258.961304,153.794708 
	C258.784790,154.825104 258.608307,155.855499 257.851837,157.157394 
	C256.270325,161.083038 258.508179,161.208405 262.130219,160.573120 
	C263.397095,160.590134 264.663971,160.607132 266.321869,161.273010 
	C270.736877,162.826889 272.667908,160.531357 272.866638,156.579773 
	C273.099091,151.958282 272.827484,147.311417 272.780365,142.314972 
	C272.780365,142.314972 272.956268,142.000168 273.469696,141.736877 
	C273.686584,141.221588 273.903442,140.706299 274.106506,140.101196 
	C274.106506,140.101196 274.194946,140.122040 274.966492,140.070007 
	C281.418640,138.134247 281.960876,138.594254 282.093689,145.339981 
	C282.169983,149.214569 282.537384,153.083450 282.847504,157.661362 
	C282.818298,158.133789 282.789093,158.606232 282.350037,159.555161 
	C283.371185,159.923615 284.392365,160.292053 286.179840,160.540848 
	C288.470154,160.530136 290.760437,160.519409 293.632690,160.876678 
	C296.901062,161.235565 298.223297,160.274017 297.429504,156.611618 
	C296.888611,154.115875 297.582764,151.375351 297.513672,148.749817 
	C297.358307,142.845032 300.192902,136.629135 295.940979,131.132538 
	C295.940979,131.132538 295.778534,131.204025 295.881531,130.530411 
	C295.272186,130.009399 294.662842,129.488388 294.003235,129.001114 
M80.572792,174.319702 
	C83.093590,171.361618 86.396606,168.770996 87.990730,165.377594 
	C93.079903,154.544205 96.944359,143.110626 102.388504,132.475357 
	C108.734909,120.077499 116.157333,108.222961 123.282288,96.233345 
	C129.584335,85.628510 137.481857,76.345818 146.593292,67.975700 
	C154.572998,60.645237 163.137482,54.536160 173.040405,49.946796 
	C184.284744,44.735775 195.706589,43.331017 207.564484,46.156708 
	C219.239334,48.938782 228.962799,55.843372 237.747437,63.474850 
	C249.746246,73.898560 261.792328,84.135506 277.200562,88.763016 
	C282.976074,90.497551 289.972900,91.034943 295.693787,89.477158 
	C307.164215,86.353752 318.257294,81.696861 329.285492,77.139107 
	C339.914917,72.746162 350.850189,70.261765 362.273315,70.847626 
	C366.999023,71.089989 371.601105,73.331581 376.345520,73.809624 
	C378.435760,74.020233 382.286163,72.443581 382.591156,71.069031 
	C383.066101,68.928276 381.439240,66.136894 380.211334,63.889984 
	C379.693665,62.942780 377.980194,62.462921 376.715881,62.138062 
	C359.851715,57.804867 343.461975,59.464821 327.529236,66.257782 
	C318.843536,69.960960 310.352173,74.179077 301.500519,77.420525 
	C286.678833,82.848190 273.176788,78.367081 261.070496,69.777679 
	C251.378632,62.901291 242.549103,54.818535 233.228912,47.406902 
	C222.142944,38.591091 209.765305,32.868599 195.296204,33.324169 
	C172.982605,34.026730 155.053040,44.809406 139.107529,59.206318 
	C128.513641,68.771339 119.558090,79.910896 112.484543,92.391411 
	C103.895065,107.546616 95.517052,122.821579 87.004303,138.020523 
	C85.953529,139.896591 84.637253,141.623978 82.611397,144.673660 
	C81.554192,139.357468 81.049751,135.582321 79.974754,131.977295 
	C79.491936,130.358139 78.047150,128.078705 76.726929,127.842514 
	C73.405182,127.248245 69.905975,127.645897 65.732269,127.645897 
	C69.036934,137.039536 72.006767,145.595505 75.057236,154.122604 
	C78.586662,163.988602 76.093445,167.242416 65.808388,166.119614 
	C65.378609,166.072678 64.910210,166.379410 64.490395,166.511719 
	C64.652802,174.733826 66.551758,176.483368 74.430733,175.594650 
	C76.241196,175.390442 78.014259,174.854645 80.572792,174.319702 
M130.689468,126.947327 
	C127.863174,127.683586 125.036873,128.419846 122.210579,129.156097 
	C122.278641,128.870163 122.346703,128.584229 122.414764,128.298294 
	C117.770096,128.038879 113.125420,127.779465 108.467453,127.519310 
	C107.602974,138.876175 106.804260,149.369064 105.983307,160.154175 
	C110.463753,160.154175 114.549179,160.154175 118.841179,160.154175 
	C119.508850,154.488083 119.910156,148.869873 120.915352,143.361877 
	C121.542427,139.925797 123.642731,136.910202 127.726730,137.577591 
	C131.625824,138.214798 132.219757,141.419083 131.982224,144.892700 
	C131.637772,149.930099 131.430801,154.976913 131.165466,160.014709 
	C135.956207,160.014709 139.992188,160.014709 144.128479,160.014709 
	C144.564377,152.165314 145.113098,144.719055 145.347626,137.262939 
	C145.523926,131.657593 142.599182,128.254044 137.049133,127.224358 
	C135.269958,126.894279 133.409058,127.004868 130.689468,126.947327 
M193.082855,161.104111 
	C200.211868,162.113327 206.676437,160.991470 211.691162,155.269852 
	C215.823029,150.555481 215.876465,146.057541 211.593765,141.556503 
	C208.626114,138.437576 205.316849,135.645233 202.315506,132.556076 
	C201.053040,131.256668 200.191025,129.568176 199.146973,128.056580 
	C201.061493,127.288467 202.968964,125.914284 204.892151,125.891937 
	C207.903275,125.856934 210.925018,126.735832 214.283035,127.283157 
	C214.067398,124.225090 214.145065,121.708633 213.610703,119.329651 
	C213.357224,118.201233 211.986267,116.543457 211.033936,116.481918 
	C205.760178,116.141129 200.361191,115.569977 195.198441,116.352783 
	C190.931290,116.999794 186.490280,118.698967 185.173386,124.056892 
	C183.770859,129.763199 185.553207,134.167313 189.921036,137.790466 
	C192.350159,139.805435 194.946609,141.675369 197.074539,143.974503 
	C198.264862,145.260590 199.649185,147.745483 199.138168,148.864944 
	C198.552460,150.147995 195.948105,151.184128 194.248550,151.144180 
	C190.675446,151.060181 187.120529,150.202789 183.554825,149.662354 
	C182.544922,159.693985 183.052155,160.349319 193.082855,161.104111 
M43.610996,161.466309 
	C45.923092,161.256073 48.310848,161.342606 50.532169,160.776291 
	C55.809914,159.430801 59.855743,156.362808 61.562019,151.009613 
	C63.146778,146.037659 60.462746,142.347107 57.163570,139.126053 
	C54.797062,136.815582 51.992054,134.945541 49.695545,132.575821 
	C48.567879,131.412186 47.294983,129.300705 47.660141,128.093994 
	C48.005260,126.953499 50.404633,125.791306 51.909077,125.779938 
	C54.967800,125.756828 58.032337,126.503304 61.621128,127.006462 
	C61.383827,123.906258 61.294460,121.125504 60.879860,118.394127 
	C60.768551,117.660828 59.643879,116.491714 59.023224,116.515961 
	C52.316055,116.778114 45.334541,116.205872 38.994877,117.937302 
	C32.720882,119.650795 30.650049,128.005524 34.609272,133.143341 
	C37.671623,137.117279 41.911121,140.163818 45.356998,143.873703 
	C46.536457,145.143509 47.563061,147.250854 47.384270,148.831284 
	C47.273308,149.812088 44.740719,151.261169 43.338955,151.213364 
	C39.265247,151.074463 35.213650,150.286926 31.156799,149.754257 
	C30.758223,160.182419 30.758383,160.180649 40.781574,161.095795 
	C41.443272,161.156204 42.099720,161.274109 43.610996,161.466309 
M166.628799,126.902382 
	C163.743073,127.515640 160.626114,127.628685 158.014893,128.835785 
	C150.123993,132.483521 149.916718,139.698898 149.985382,147.105850 
	C150.052475,154.342957 154.829163,158.017075 160.349182,160.431778 
	C170.499756,164.872055 178.058746,160.327560 177.372498,150.819397 
	C164.881287,151.617706 162.857162,150.804245 162.897812,144.583893 
	C162.910004,142.720383 163.426773,139.559341 164.443192,139.226852 
	C169.010391,137.732864 173.840698,137.043243 178.978577,135.980225 
	C179.778183,128.017960 179.189194,127.284874 170.564804,126.915962 
	C169.568146,126.873329 168.568512,126.900032 166.628799,126.902382 
z"/>
<path fill="#434345" opacity="1.000000" stroke="none" 
	d="
M80.188660,174.395569 
	C78.014259,174.854645 76.241196,175.390442 74.430733,175.594650 
	C66.551758,176.483368 64.652802,174.733826 64.490395,166.511719 
	C64.910210,166.379410 65.378609,166.072678 65.808388,166.119614 
	C76.093445,167.242416 78.586662,163.988602 75.057236,154.122604 
	C72.006767,145.595505 69.036934,137.039536 65.732269,127.645897 
	C69.905975,127.645897 73.405182,127.248245 76.726929,127.842514 
	C78.047150,128.078705 79.491936,130.358139 79.974754,131.977295 
	C81.049751,135.582321 81.554192,139.357468 82.611397,144.673660 
	C84.637253,141.623978 85.953529,139.896591 87.004303,138.020523 
	C95.517052,122.821579 103.895065,107.546616 112.484543,92.391411 
	C119.558090,79.910896 128.513641,68.771339 139.107529,59.206318 
	C155.053040,44.809406 172.982605,34.026730 195.296204,33.324169 
	C209.765305,32.868599 222.142944,38.591091 233.228912,47.406902 
	C242.549103,54.818535 251.378632,62.901291 261.070496,69.777679 
	C273.176788,78.367081 286.678833,82.848190 301.500519,77.420525 
	C310.352173,74.179077 318.843536,69.960960 327.529236,66.257782 
	C343.461975,59.464821 359.851715,57.804867 376.715881,62.138062 
	C377.980194,62.462921 379.693665,62.942780 380.211334,63.889984 
	C381.439240,66.136894 383.066101,68.928276 382.591156,71.069031 
	C382.286163,72.443581 378.435760,74.020233 376.345520,73.809624 
	C371.601105,73.331581 366.999023,71.089989 362.273315,70.847626 
	C350.850189,70.261765 339.914917,72.746162 329.285492,77.139107 
	C318.257294,81.696861 307.164215,86.353752 295.693787,89.477158 
	C289.972900,91.034943 282.976074,90.497551 277.200562,88.763016 
	C261.792328,84.135506 249.746246,73.898560 237.747437,63.474850 
	C228.962799,55.843372 219.239334,48.938782 207.564484,46.156708 
	C195.706589,43.331017 184.284744,44.735775 173.040405,49.946796 
	C163.137482,54.536160 154.572998,60.645237 146.593292,67.975700 
	C137.481857,76.345818 129.584335,85.628510 123.282288,96.233345 
	C116.157333,108.222961 108.734909,120.077499 102.388504,132.475357 
	C96.944359,143.110626 93.079903,154.544205 87.990730,165.377594 
	C86.396606,168.770996 83.093590,171.361618 80.188660,174.395569 
z"/>
<path fill="#25A7BE" opacity="1.000000" stroke="none" 
	d="
M209.033356,77.953041 
	C208.650116,77.601074 208.266861,77.249107 207.424637,76.522629 
	C201.786652,71.947380 195.553665,72.019165 189.513504,72.461990 
	C186.099518,72.712296 182.798325,74.501358 179.446335,75.597321 
	C179.115265,75.694550 178.784195,75.791779 177.972031,76.024460 
	C177.306671,76.436607 177.122406,76.713310 176.938141,76.990013 
	C176.102173,77.538277 175.266205,78.086533 173.912781,78.867310 
	C172.784744,79.641434 172.174179,80.183037 171.563614,80.724648 
	C171.119476,81.005081 170.675323,81.285515 169.833282,81.910950 
	C168.780304,83.048576 168.125198,83.841194 167.470108,84.633820 
	C166.669067,85.145630 165.868011,85.657440 164.633362,86.552139 
	C163.447678,88.279587 162.695633,89.624146 161.943588,90.968704 
	C161.599533,91.339539 161.255493,91.710373 160.567947,92.452774 
	C160.019684,93.149017 159.814926,93.473686 159.610153,93.798363 
	C159.345245,93.963570 159.158966,94.192703 158.732010,94.825912 
	C158.161148,95.678764 157.909576,96.191467 157.658020,96.704163 
	C157.658005,96.704163 157.831833,96.970169 157.513031,96.922012 
	C157.036682,97.159805 156.879150,97.445763 156.721619,97.731720 
	C156.721619,97.731720 156.715897,97.956017 156.416473,97.954987 
	C155.728561,98.633759 155.340073,99.313568 154.951599,99.993378 
	C154.742615,100.255135 154.533646,100.516907 153.914215,101.071686 
	C153.286484,101.887825 153.069199,102.410957 152.851898,102.934082 
	C152.511307,103.306236 152.170715,103.678398 151.491730,104.457176 
	C150.833420,105.597374 150.513519,106.330948 150.193634,107.064529 
	C150.193634,107.064529 149.928299,107.324799 149.628418,107.644783 
	C149.200790,108.310204 149.073029,108.655647 148.945282,109.001091 
	C148.945282,109.001091 148.732895,109.247475 148.447113,109.627197 
	C146.443161,112.075012 144.724976,114.143105 143.006805,116.211197 
	C142.248901,116.161964 141.491013,116.112732 140.164001,115.800835 
	C136.471481,113.577332 135.532089,110.938629 137.054886,107.497795 
	C137.715637,106.004776 138.305756,104.480476 138.927948,102.970383 
	C138.927948,102.970383 139.165009,102.705093 139.456177,102.335938 
	C139.965576,101.372948 140.183807,100.779114 140.402039,100.185287 
	C140.666336,99.778244 140.930634,99.371208 141.551819,98.573288 
	C142.956223,96.789574 144.003708,95.396744 145.051193,94.003922 
	C145.051193,94.003914 145.247528,93.770180 145.509933,93.468826 
	C145.939575,92.822815 146.106827,92.478157 146.274078,92.133499 
	C146.554901,91.988655 146.761780,91.772896 147.236023,91.135895 
	C147.807175,90.231697 148.036957,89.677803 148.266754,89.123917 
	C154.609192,81.528336 160.438354,73.608818 169.123413,68.130127 
	C186.850891,56.947304 203.505981,59.421204 219.705383,70.929939 
	C228.062149,76.866943 235.826599,83.678856 244.417160,89.231392 
	C250.336411,93.057312 257.213745,95.400909 264.241913,98.679184 
	C266.212097,99.408867 267.603241,99.866348 268.994385,100.323830 
	C268.994385,100.323830 269.194275,100.431870 269.498596,100.612877 
	C270.197662,100.871864 270.592407,100.949844 270.987183,101.027817 
	C270.987183,101.027817 270.997711,100.998222 271.257751,101.273521 
	C276.029205,102.173897 280.540649,102.798981 285.052094,103.424057 
	C286.116974,103.547523 287.181854,103.670982 289.074890,103.855461 
	C293.943146,103.636581 297.983276,103.356674 302.023407,103.076767 
	C302.467010,103.102608 302.910645,103.128448 304.080231,103.126678 
	C307.756287,102.209816 310.706390,101.320557 313.656464,100.431290 
	C313.981812,100.558281 314.298706,100.539871 315.156799,100.236679 
	C317.130341,99.394821 318.554230,98.692337 319.978119,97.989861 
	C319.978119,97.989861 319.995575,98.004074 320.295227,97.991837 
	C320.886169,97.722641 321.177429,97.465691 321.468689,97.208740 
	C321.468689,97.208740 321.757904,97.274757 322.260925,97.203842 
	C324.912720,96.155640 327.061432,95.178352 329.210175,94.201073 
	C329.210175,94.201073 329.118103,94.121986 329.436951,94.164566 
	C330.231201,93.835716 330.706543,93.464279 331.181885,93.092834 
	C331.588654,93.013199 331.995453,92.933571 332.991882,92.778763 
	C334.725800,92.142395 335.870026,91.581200 337.014282,91.020004 
	C337.014282,91.020004 337.000000,91.000000 337.304993,90.986427 
	C337.908020,90.721878 338.206085,90.470901 338.504150,90.219925 
	C338.504150,90.219917 338.790070,90.294807 339.280243,90.176575 
	C347.750885,86.197426 356.073303,84.648277 364.875824,86.344681 
	C365.377838,86.577240 365.879852,86.809807 366.881653,87.293327 
	C368.256561,87.699501 369.131744,87.854713 370.006897,88.009926 
	C370.006897,88.009926 370.266663,88.204468 370.591980,88.436661 
	C371.279114,88.794174 371.640991,88.919502 372.002838,89.044830 
	C372.002838,89.044830 372.196228,89.255226 372.491852,89.539726 
	C373.535889,90.139473 374.284332,90.454712 375.032745,90.769958 
	C376.451447,91.779106 377.870117,92.788254 379.683105,94.169258 
	C380.387939,94.684975 380.698486,94.828835 381.009003,94.972702 
	C381.009003,94.972702 381.002106,95.004295 381.090942,95.201149 
	C381.179749,95.398003 381.544739,95.636688 381.544739,95.636688 
	C381.544739,95.636688 381.976318,95.574059 381.976318,95.574051 
	C382.841339,96.589233 383.706329,97.604408 384.888123,99.040970 
	C385.359436,99.806641 385.625427,99.977127 386.002838,99.973816 
	C386.002838,99.973816 385.996368,100.002121 386.042908,100.314255 
	C386.739532,101.396378 387.389557,102.166374 388.039612,102.936371 
	C388.039612,102.936371 388.004120,102.997208 388.069702,103.326523 
	C390.357452,107.574715 392.579620,111.493584 394.801788,115.412445 
	C394.816498,115.773773 394.831177,116.135109 394.877197,117.213181 
	C394.562622,124.621544 394.216766,131.313171 393.870911,138.004791 
	C393.870880,138.004791 393.689697,138.204773 393.472900,138.504028 
	C393.113983,139.171295 392.971863,139.539322 392.829742,139.907349 
	C392.829742,139.907349 392.927795,139.927170 392.660278,139.987244 
	C392.265472,140.365646 392.138245,140.683975 392.011017,141.002304 
	C392.011017,141.002304 391.786346,141.197861 391.530579,141.507416 
	C391.117737,142.171524 390.960693,142.526108 390.803650,142.880692 
	C390.803650,142.880692 390.906586,142.902756 390.627075,142.945099 
	C390.188446,143.297043 390.029297,143.606628 389.870178,143.916229 
	C389.870178,143.916245 389.968323,143.970566 389.691742,144.013992 
	C389.280090,144.371750 389.144989,144.686066 389.009918,145.000397 
	C388.666321,145.457916 388.322693,145.915421 387.644043,146.802795 
	C385.867371,148.818130 384.425751,150.403625 382.984131,151.989105 
	C382.984100,151.989090 383.000000,152.000610 382.737122,152.043549 
	C382.274780,152.362579 382.075287,152.638702 381.875793,152.914825 
	C381.875793,152.914810 381.960724,152.949890 381.640991,152.923004 
	C380.851746,153.249954 380.382233,153.603806 379.912720,153.957657 
	C379.912720,153.957657 379.428650,154.067520 378.927063,154.176392 
	C377.781158,154.771851 377.136841,155.258423 376.492554,155.745010 
	C376.492554,155.745010 376.210052,155.712006 375.796875,155.834076 
	C375.071136,156.218307 374.758545,156.480453 374.445984,156.742615 
	C374.445984,156.742630 374.203033,156.641083 373.705231,156.740143 
	C365.457642,158.352051 357.707855,159.864914 349.958069,161.377777 
	C349.521301,161.285217 349.084564,161.192673 347.968933,161.015625 
	C345.177246,160.330856 343.064392,159.730576 340.951538,159.130295 
	C340.235565,158.457993 339.519592,157.785706 338.429138,156.694031 
	C337.442200,155.699295 336.829742,155.123947 336.217285,154.548615 
	C336.217285,154.548615 336.221741,154.235840 336.095825,153.832962 
	C335.695770,153.175461 335.421600,152.920822 335.147461,152.666183 
	C335.147461,152.666183 335.153412,152.308075 335.104675,151.820511 
	C334.671295,150.565475 334.286682,149.798004 333.902039,149.030548 
	C333.869110,148.554428 333.836182,148.078308 333.808228,146.866394 
	C334.163147,143.420929 334.513123,140.711258 334.863098,138.001602 
	C334.863098,138.001602 335.068634,137.630081 335.356812,137.211731 
	C336.082703,135.526733 336.520477,134.260086 336.958221,132.993439 
	C337.526642,132.441116 338.095062,131.888794 339.124329,130.981033 
	C342.058716,129.417496 344.532227,128.209381 347.005768,127.001266 
	C349.389740,126.955788 351.773712,126.910301 354.954285,126.945892 
	C357.514313,127.246040 359.277740,127.465111 361.041138,127.684174 
	C361.346527,127.860497 361.651886,128.036835 362.381470,128.523621 
	C363.843475,129.613358 364.881256,130.392624 365.919037,131.171890 
	C366.338776,131.729660 366.758545,132.287430 367.451843,133.404022 
	C370.889496,143.681152 370.445923,144.308792 360.323151,144.341843 
	C355.792267,144.356628 351.261322,144.344345 346.729279,144.344345 
	C346.404144,149.463974 348.346802,152.328598 352.178802,152.089020 
	C357.984192,151.726089 363.723694,150.309250 369.640503,149.345001 
	C369.789764,149.349823 370.011139,149.149277 370.292969,149.116943 
	C370.801514,148.799469 371.028198,148.514359 371.245789,148.260559 
	C371.236755,148.291885 371.301880,148.288757 371.586853,148.254120 
	C372.276398,147.838455 372.680939,147.457397 373.085480,147.076340 
	C373.085480,147.076340 373.023499,147.003937 373.322571,147.001465 
	C373.886810,146.727127 374.151978,146.455292 374.417145,146.183441 
	C375.536835,145.379333 376.656525,144.575211 378.241913,143.445831 
	C378.983521,142.821182 379.259399,142.521790 379.535278,142.222382 
	C379.535278,142.222382 379.816010,142.260452 380.242279,142.123108 
	C381.442139,140.987381 382.215729,139.988983 382.989319,138.990570 
	C383.240631,138.760483 383.390259,138.476761 383.723511,137.694336 
	C389.328705,130.350891 387.384918,119.647110 381.094757,110.900528 
	C381.094757,110.900528 381.002380,110.974846 381.005371,110.684677 
	C380.714355,110.206421 380.420349,110.018326 380.126343,109.830231 
	C380.126343,109.830231 380.127350,109.968521 380.083252,109.589722 
	C379.056854,108.433754 378.074615,107.656593 377.092346,106.879425 
	C377.092346,106.879425 377.016113,106.982964 377.004333,106.623840 
	C376.012665,105.472229 375.032806,104.679749 374.052948,103.887268 
	C373.665009,103.567215 373.277069,103.247169 372.490784,102.629715 
	C371.747437,102.184174 371.402374,102.036041 371.057343,101.887909 
	C371.057343,101.887901 371.029388,101.987480 370.899963,101.639587 
	C363.484406,97.052139 355.995178,94.777565 347.842560,98.922272 
	C347.357605,99.055099 346.872620,99.187927 345.830444,99.478592 
	C344.469666,100.068161 343.666107,100.499893 342.862579,100.931625 
	C342.862579,100.931625 342.410583,100.989136 341.916077,101.089142 
	C340.603271,101.761368 339.784973,102.333580 338.966675,102.905800 
	C338.414246,103.062485 337.861847,103.219162 336.794525,103.609512 
	C335.707062,104.156006 335.134521,104.468826 334.561951,104.781639 
	C334.207306,104.821205 333.852661,104.860779 332.900604,105.009872 
	C327.334534,107.303963 322.365906,109.488518 317.397247,111.673065 
	C317.397247,111.673065 316.905945,111.619965 316.905945,111.619965 
	C316.905945,111.619965 316.428436,111.747276 315.816101,111.851898 
	C311.131042,112.962593 307.058289,113.968674 302.985535,114.974747 
	C300.952942,115.046654 298.920380,115.118553 296.032349,115.167572 
	C292.436188,115.209702 289.695465,115.274712 286.954742,115.339722 
	C285.255127,115.219200 283.555542,115.098679 281.172577,114.756866 
	C279.307983,114.497292 278.126770,114.459000 276.945526,114.420715 
	C276.509277,114.299393 276.072998,114.178062 275.056091,113.829781 
	C272.311005,113.102737 270.146515,112.602638 267.982056,112.102539 
	C267.409515,111.907745 266.836975,111.712944 265.741943,111.260910 
	C263.824463,110.617943 262.429474,110.232193 261.034515,109.846451 
	C260.776367,109.632652 260.480286,109.512123 259.691467,109.241493 
	C257.151520,108.355896 255.066376,107.713661 252.981216,107.071419 
	C252.671524,106.927635 252.361847,106.783859 251.604889,106.390762 
	C250.784164,106.044792 250.410721,105.948143 250.037277,105.851494 
	C250.037277,105.851494 249.766418,105.684921 249.432098,105.394226 
	C247.057846,104.086594 245.017914,103.069656 242.977997,102.052719 
	C242.579926,101.695282 242.181870,101.337845 241.345703,100.623703 
	C239.279633,99.151558 237.651672,98.036125 236.023712,96.920692 
	C236.023712,96.920692 235.753937,96.731544 235.382919,96.451218 
	C233.351318,95.093529 231.690720,94.016182 230.030136,92.938828 
	C229.212112,92.373215 228.394073,91.807610 227.249939,90.804100 
	C226.272308,89.928230 225.620789,89.490257 224.969284,89.052292 
	C224.969284,89.052284 224.996414,88.998497 224.855682,88.744751 
	C224.195557,88.250145 223.676178,88.009285 223.156784,87.768425 
	C223.156784,87.768425 223.054443,87.896843 223.026276,87.611404 
	C222.685104,87.186226 222.372101,87.046486 222.059082,86.906738 
	C222.059082,86.906746 222.012772,86.990608 221.965118,86.715096 
	C221.613205,86.290146 221.308975,86.140709 221.004730,85.991280 
	C221.004730,85.991280 221.000000,86.000000 220.882355,85.719902 
	C220.220627,85.224892 219.676544,85.009979 219.132477,84.795067 
	C219.132477,84.795067 219.030396,84.922455 218.990662,84.641022 
	C218.634262,84.237030 218.317596,84.114464 218.000931,83.991890 
	C217.613464,83.651253 217.225998,83.310616 216.479614,82.577568 
	C215.430038,81.747063 214.739380,81.308975 214.048706,80.870888 
	C214.048706,80.870888 213.799759,80.682877 213.467148,80.442993 
	C212.768509,80.085197 212.402496,79.967270 212.036469,79.849350 
	C212.036469,79.849350 211.806168,79.657997 211.495178,79.381317 
	C210.467239,78.720764 209.750305,78.336906 209.033356,77.953041 
M347.450134,138.068207 
	C349.922424,142.607498 353.566406,139.117752 357.104767,139.224487 
	C356.266113,137.128830 354.976532,134.406494 353.644226,134.385422 
	C351.692047,134.354523 349.709290,136.257919 347.450134,138.068207 
z"/>
<path fill="#434345" opacity="1.000000" stroke="none" 
	d="
M131.137512,126.930588 
	C133.409058,127.004868 135.269958,126.894279 137.049133,127.224358 
	C142.599182,128.254044 145.523926,131.657593 145.347626,137.262939 
	C145.113098,144.719055 144.564377,152.165314 144.128479,160.014709 
	C139.992188,160.014709 135.956207,160.014709 131.165466,160.014709 
	C131.430801,154.976913 131.637772,149.930099 131.982224,144.892700 
	C132.219757,141.419083 131.625824,138.214798 127.726730,137.577591 
	C123.642731,136.910202 121.542427,139.925797 120.915352,143.361877 
	C119.910156,148.869873 119.508850,154.488083 118.841179,160.154175 
	C114.549179,160.154175 110.463753,160.154175 105.983307,160.154175 
	C106.804260,149.369064 107.602974,138.876175 108.467453,127.519310 
	C113.125420,127.779465 117.770096,128.038879 122.414764,128.298294 
	C122.346703,128.584229 122.278641,128.870163 122.210579,129.156097 
	C125.036873,128.419846 127.863174,127.683586 131.137512,126.930588 
z"/>
<path fill="#26A8BE" opacity="1.000000" stroke="none" 
	d="
M192.657516,161.060745 
	C183.052155,160.349319 182.544922,159.693985 183.554825,149.662354 
	C187.120529,150.202789 190.675446,151.060181 194.248550,151.144180 
	C195.948105,151.184128 198.552460,150.147995 199.138168,148.864944 
	C199.649185,147.745483 198.264862,145.260590 197.074539,143.974503 
	C194.946609,141.675369 192.350159,139.805435 189.921036,137.790466 
	C185.553207,134.167313 183.770859,129.763199 185.173386,124.056892 
	C186.490280,118.698967 190.931290,116.999794 195.198441,116.352783 
	C200.361191,115.569977 205.760178,116.141129 211.033936,116.481918 
	C211.986267,116.543457 213.357224,118.201233 213.610703,119.329651 
	C214.145065,121.708633 214.067398,124.225090 214.283035,127.283157 
	C210.925018,126.735832 207.903275,125.856934 204.892151,125.891937 
	C202.968964,125.914284 201.061493,127.288467 199.146973,128.056580 
	C200.191025,129.568176 201.053040,131.256668 202.315506,132.556076 
	C205.316849,135.645233 208.626114,138.437576 211.593765,141.556503 
	C215.876465,146.057541 215.823029,150.555481 211.691162,155.269852 
	C206.676437,160.991470 200.211868,162.113327 192.657516,161.060745 
z"/>
<path fill="#444445" opacity="1.000000" stroke="none" 
	d="
M43.184803,161.415771 
	C42.099720,161.274109 41.443272,161.156204 40.781574,161.095795 
	C30.758383,160.180649 30.758223,160.182419 31.156799,149.754257 
	C35.213650,150.286926 39.265247,151.074463 43.338955,151.213364 
	C44.740719,151.261169 47.273308,149.812088 47.384270,148.831284 
	C47.563061,147.250854 46.536457,145.143509 45.356998,143.873703 
	C41.911121,140.163818 37.671623,137.117279 34.609272,133.143341 
	C30.650049,128.005524 32.720882,119.650795 38.994877,117.937302 
	C45.334541,116.205872 52.316055,116.778114 59.023224,116.515961 
	C59.643879,116.491714 60.768551,117.660828 60.879860,118.394127 
	C61.294460,121.125504 61.383827,123.906258 61.621128,127.006462 
	C58.032337,126.503304 54.967800,125.756828 51.909077,125.779938 
	C50.404633,125.791306 48.005260,126.953499 47.660141,128.093994 
	C47.294983,129.300705 48.567879,131.412186 49.695545,132.575821 
	C51.992054,134.945541 54.797062,136.815582 57.163570,139.126053 
	C60.462746,142.347107 63.146778,146.037659 61.562019,151.009613 
	C59.855743,156.362808 55.809914,159.430801 50.532169,160.776291 
	C48.310848,161.342606 45.923092,161.256073 43.184803,161.415771 
z"/>
<path fill="#23A7BD" opacity="1.000000" stroke="none" 
	d="
M282.759857,159.078659 
	C282.789093,158.606232 282.818298,158.133789 283.097168,157.013016 
	C283.537659,152.087387 284.080811,147.784225 283.769531,143.543793 
	C283.615631,141.447296 282.210419,138.104599 280.791229,137.767410 
	C278.886505,137.314835 276.420166,139.225769 274.194946,140.122040 
	C274.194946,140.122040 274.106506,140.101196 273.817993,140.224579 
	C273.338440,140.898682 273.147339,141.449432 272.956268,142.000168 
	C272.956268,142.000168 272.780365,142.314972 272.516479,142.794495 
	C271.849884,146.811188 270.987579,150.371475 271.164185,153.879440 
	C271.371216,157.990463 270.142853,160.280685 265.930847,160.624130 
	C264.663971,160.607132 263.397095,160.590134 261.457947,160.417114 
	C260.001038,159.136047 259.216400,158.010971 258.431793,156.885895 
	C258.608307,155.855499 258.784790,154.825104 259.244995,153.086578 
	C259.641693,150.400040 259.756927,148.421783 259.867310,146.443237 
	C260.215851,140.196030 260.562561,133.948700 260.909973,127.701416 
	C261.354492,127.708199 261.799011,127.714981 262.993317,127.777267 
	C265.536285,127.710304 267.329498,127.587830 269.122711,127.465355 
	C269.853363,127.572395 270.583984,127.679443 271.702026,128.139999 
	C273.718201,132.945358 274.990326,128.893372 276.408051,128.312378 
	C276.754608,128.207474 277.101135,128.102585 278.014618,127.940170 
	C279.381927,127.559799 280.182312,127.236954 280.982697,126.914101 
	C283.363007,126.926941 285.743347,126.939781 288.795349,127.186104 
	C290.988495,127.928917 292.509949,128.438248 294.031403,128.947586 
	C294.031403,128.947586 294.003235,129.001114 294.060852,129.288483 
	C294.671814,130.118561 295.225189,130.661301 295.778534,131.204025 
	C295.778534,131.204025 295.940979,131.132538 295.867554,131.545609 
	C295.725952,140.532150 295.737579,149.108017 295.479004,157.675720 
	C295.449768,158.643585 293.897003,159.565475 293.050751,160.508667 
	C290.760437,160.519409 288.470154,160.530136 285.570648,160.384338 
	C284.227600,159.844772 283.493713,159.461716 282.759857,159.078659 
z"/>
<path fill="#27A8BE" opacity="1.000000" stroke="none" 
	d="
M244.984390,161.137848 
	C241.299438,161.128418 237.614471,161.118988 233.127197,160.977814 
	C230.879929,160.563828 229.434967,160.281616 227.990005,159.999390 
	C227.598251,159.672974 227.206512,159.346542 226.472351,158.592133 
	C225.420380,157.767075 224.710815,157.370026 224.001251,156.972977 
	C223.764648,156.745575 223.513901,156.535004 222.974823,155.920563 
	C222.221008,155.180359 221.741364,154.860855 221.261719,154.541351 
	C221.168762,154.203491 221.075790,153.865616 220.876633,152.946915 
	C220.215637,150.570114 219.660828,148.774139 219.106018,146.978149 
	C219.126129,146.540649 219.146225,146.103149 219.320435,145.019608 
	C219.999710,141.249557 220.524872,138.125549 221.050049,135.001556 
	C221.899734,133.848129 222.749405,132.694717 224.075592,131.283051 
	C224.763931,130.747879 224.975769,130.470932 225.187607,130.194000 
	C225.187607,130.194000 225.200943,130.192154 225.558502,130.147430 
	C228.272354,129.033417 230.628647,127.964104 232.984940,126.894791 
	C235.357864,126.898560 237.730774,126.902321 240.873566,127.019440 
	C242.803558,127.242455 243.963699,127.352119 245.123825,127.461777 
	C245.531830,127.612152 245.939819,127.762535 246.818726,128.203552 
	C247.828049,128.700531 248.366486,128.906876 248.904922,129.113220 
	C248.904922,129.113220 249.000793,129.016876 248.999146,129.368561 
	C249.664948,130.148773 250.332413,130.577316 250.999863,131.005875 
	C250.999863,131.005875 251.226135,131.226059 251.510345,131.513855 
	C252.097290,132.023376 252.400009,132.245117 252.702728,132.466843 
	C252.702728,132.466843 252.763367,132.770996 252.894958,133.162094 
	C253.267014,133.825729 253.507477,134.098282 253.747940,134.370834 
	C253.747940,134.370834 253.763748,134.714508 253.820251,135.321899 
	C253.984192,136.747910 254.052841,137.573807 254.205505,138.383896 
	C255.039078,142.806717 253.577316,144.783829 248.754822,144.328659 
	C244.497559,143.926849 240.170883,144.111618 235.883316,144.268600 
	C234.568527,144.316742 232.184982,145.121597 232.182236,145.591049 
	C232.172974,147.167328 233.017136,148.748611 233.534668,150.327988 
	C233.534668,150.327988 233.622406,150.372086 233.829987,150.715149 
	C239.433640,151.553101 244.829727,152.047958 250.718948,152.588043 
	C250.264877,154.679794 249.684235,157.354660 249.103592,160.029510 
	C248.573975,160.243423 248.044357,160.457336 246.907425,160.732483 
	C245.861542,160.908447 245.422958,161.023148 244.984390,161.137848 
M232.677673,139.575470 
	C235.722916,139.785843 238.768158,139.996216 241.813400,140.206589 
	C242.199265,139.660797 242.585114,139.115021 242.970978,138.569229 
	C241.530731,137.066589 240.327454,134.727875 238.600082,134.238297 
	C235.182495,133.269699 233.033905,135.362854 232.677673,139.575470 
z"/>
<path fill="#454547" opacity="1.000000" stroke="none" 
	d="
M167.099533,126.898483 
	C168.568512,126.900032 169.568146,126.873329 170.564804,126.915962 
	C179.189194,127.284874 179.778183,128.017960 178.978577,135.980225 
	C173.840698,137.043243 169.010391,137.732864 164.443192,139.226852 
	C163.426773,139.559341 162.910004,142.720383 162.897812,144.583893 
	C162.857162,150.804245 164.881287,151.617706 177.372498,150.819397 
	C178.058746,160.327560 170.499756,164.872055 160.349182,160.431778 
	C154.829163,158.017075 150.052475,154.342957 149.985382,147.105850 
	C149.916718,139.698898 150.123993,132.483521 158.014893,128.835785 
	C160.626114,127.628685 163.743073,127.515640 167.099533,126.898483 
z"/>
<path fill="#27A8BE" opacity="1.000000" stroke="none" 
	d="
M321.018982,135.770996 
	C320.560577,135.752335 320.102203,135.733658 319.037109,135.820770 
	C318.182892,136.185562 317.935303,136.444580 317.519135,136.900070 
	C317.703308,137.298965 318.056122,137.501404 318.391663,137.675568 
	C318.374420,137.647278 318.397949,137.706406 318.397949,137.706406 
	C318.366882,138.057053 318.335785,138.407700 318.609161,139.228607 
	C319.260895,139.859192 319.608124,140.019485 319.955383,140.179779 
	C319.955383,140.179779 320.156342,140.355026 320.447571,140.639130 
	C323.035217,142.824081 325.331665,144.724915 327.628113,146.625748 
	C327.628113,146.625748 327.583954,146.877060 327.687286,147.320190 
	C328.106812,148.867493 328.423004,149.971664 328.739166,151.075836 
	C328.687012,151.677002 328.634857,152.278183 328.421936,153.355896 
	C328.135406,154.207550 328.009644,154.582642 327.883881,154.957733 
	C327.571289,155.112747 327.350433,155.352325 326.874969,156.013672 
	C326.250763,156.853912 325.972839,157.356903 325.694946,157.859894 
	C324.921692,158.370575 324.148407,158.881226 322.831024,159.571747 
	C321.727905,160.078003 321.168945,160.404419 320.609985,160.730835 
	C320.247620,160.765259 319.885284,160.799683 318.999695,160.889313 
	C318.311829,161.013962 318.147125,161.083420 317.982391,161.152893 
	C317.553467,161.157944 317.124573,161.162979 315.944336,161.147858 
	C311.169739,160.665771 307.146454,160.203857 303.123138,159.741943 
	C303.123138,159.741943 303.005707,159.358078 302.942352,158.804733 
	C302.564209,156.170761 302.249420,154.090118 301.934601,152.009491 
	C301.934601,152.009491 302.089325,151.632477 302.510132,151.396118 
	C305.514526,151.492111 308.096100,152.046722 310.682465,152.070145 
	C312.140320,152.083344 313.606110,151.221252 315.068329,150.753448 
	C314.358948,149.363907 313.826965,147.834244 312.878601,146.633469 
	C312.233154,145.816269 311.004791,145.459503 310.037079,144.896835 
	C310.037079,144.896835 309.807861,144.692780 309.489685,144.441742 
	C308.821808,144.043396 308.472137,143.896088 308.122467,143.748795 
	C307.599060,143.246201 307.075623,142.743607 306.262390,141.734772 
	C305.688660,137.834793 305.404724,134.441086 305.120789,131.047363 
	C306.513275,129.989853 307.905762,128.932343 309.888184,127.827911 
	C310.984985,127.513367 311.491852,127.245750 311.998718,126.978134 
	C313.049164,126.945976 314.099640,126.913818 315.974854,126.929031 
	C320.554108,127.217422 324.308563,127.458450 328.063019,127.699471 
	C328.063019,127.699471 328.382263,127.962173 328.572205,128.278229 
	C328.762115,128.594284 328.990692,129.005890 328.990692,129.005890 
	C328.984772,130.066589 328.978821,131.127289 328.977966,132.849609 
	C329.056274,133.682281 329.129456,133.853302 329.202637,134.024338 
	C329.146881,134.466431 329.091125,134.908524 328.895050,135.796402 
	C328.754700,136.242188 328.685333,136.620010 328.685333,136.620010 
	C328.685333,136.620010 328.677002,136.671860 328.451416,136.608658 
	C327.885406,136.604874 327.544952,136.664307 327.204529,136.723724 
	C327.204529,136.723724 327.082916,136.694046 327.017273,136.471771 
	C326.636810,136.154572 326.321960,136.059662 325.755829,135.880890 
	C325.335052,135.846649 325.165558,135.896240 324.996063,135.945831 
	C324.240875,135.841125 323.485657,135.736420 322.110901,135.618011 
	C321.333832,135.659897 321.176392,135.715439 321.018982,135.770996 
z"/>
<path fill="#DDF6F9" opacity="1.000000" stroke="none" 
	d="
M369.491211,149.340179 
	C363.723694,150.309250 357.984192,151.726089 352.178802,152.089020 
	C348.346802,152.328598 346.404144,149.463974 346.729279,144.344345 
	C351.261322,144.344345 355.792267,144.356628 360.323151,144.341843 
	C370.445923,144.308792 370.889496,143.681152 367.671936,133.551895 
	C368.653046,136.229004 369.845001,139.277451 370.637878,142.426376 
	C370.920258,143.547836 370.234497,144.913086 369.605438,146.410339 
	C363.765106,146.450348 358.308411,146.111771 352.856537,146.177460 
	C351.951904,146.188354 351.068542,147.963730 350.175354,148.923706 
	C351.348480,149.373993 352.533356,150.236816 353.692719,150.203812 
	C358.962830,150.053879 364.225708,149.651657 369.491211,149.340179 
z"/>
<path fill="#FEFCFE" opacity="1.000000" stroke="none" 
	d="
M369.640503,149.345001 
	C364.225708,149.651657 358.962830,150.053879 353.692719,150.203812 
	C352.533356,150.236816 351.348480,149.373993 350.175354,148.923706 
	C351.068542,147.963730 351.951904,146.188354 352.856537,146.177460 
	C358.308411,146.111771 363.765106,146.450348 369.600311,146.821518 
	C370.150940,146.992340 370.321472,146.995270 370.796082,147.327972 
	C371.167389,147.868088 371.234619,148.078415 371.301880,148.288757 
	C371.301880,148.288757 371.236755,148.291885 370.960327,148.283463 
	C370.459625,148.566452 370.235382,148.857864 370.011139,149.149277 
	C370.011139,149.149277 369.789764,149.349823 369.640503,149.345001 
z"/>
<path fill="#C4EEF6" opacity="1.000000" stroke="none" 
	d="
M233.643677,149.937988 
	C233.017136,148.748611 232.172974,147.167328 232.182236,145.591049 
	C232.184982,145.121597 234.568527,144.316742 235.883316,144.268600 
	C240.170883,144.111618 244.497559,143.926849 248.754822,144.328659 
	C253.577316,144.783829 255.039078,142.806717 254.205505,138.383896 
	C254.052841,137.573807 253.984192,136.747910 253.910095,135.468597 
	C254.404312,138.057205 255.401443,141.179825 255.000824,144.111404 
	C254.879868,144.996506 250.906036,145.716599 248.653305,145.870148 
	C244.545670,146.150131 240.397522,146.106155 236.281158,145.900253 
	C233.132568,145.742752 233.134415,147.323532 233.643677,149.937988 
z"/>
<path fill="#DDF6F9" opacity="1.000000" stroke="none" 
	d="
M381.060699,111.294281 
	C387.384918,119.647110 389.328705,130.350891 383.696716,137.451263 
	C383.593018,135.895126 383.463409,134.010101 384.067688,132.400650 
	C386.889160,124.885849 382.932800,118.453560 381.060699,111.294281 
z"/>
<path fill="#C4EEF5" opacity="1.000000" stroke="none" 
	d="
M274.580719,140.096039 
	C276.420166,139.225769 278.886505,137.314835 280.791229,137.767410 
	C282.210419,138.104599 283.615631,141.447296 283.769531,143.543793 
	C284.080811,147.784225 283.537659,152.087387 283.060303,156.659790 
	C282.537384,153.083450 282.169983,149.214569 282.093689,145.339981 
	C281.960876,138.594254 281.418640,138.134247 274.580719,140.096039 
z"/>
<path fill="#C4EEF5" opacity="1.000000" stroke="none" 
	d="
M293.341736,160.692673 
	C293.897003,159.565475 295.449768,158.643585 295.479004,157.675720 
	C295.737579,149.108017 295.725952,140.532150 295.779236,131.553955 
	C300.192902,136.629135 297.358307,142.845032 297.513672,148.749817 
	C297.582764,151.375351 296.888611,154.115875 297.429504,156.611618 
	C298.223297,160.274017 296.901062,161.235565 293.341736,160.692673 
z"/>
<path fill="#C4EEF5" opacity="1.000000" stroke="none" 
	d="
M260.667542,127.492310 
	C260.562561,133.948700 260.215851,140.196030 259.867310,146.443237 
	C259.756927,148.421783 259.641693,150.400040 259.258362,152.690216 
	C258.677734,149.973557 258.195343,146.950653 258.097473,143.915359 
	C257.951599,139.390884 257.933685,134.849442 258.193207,130.334290 
	C258.253906,129.278000 259.645752,128.298203 260.667542,127.492310 
z"/>
<path fill="#DDF6F9" opacity="1.000000" stroke="none" 
	d="
M364.763855,85.948837 
	C356.073303,84.648277 347.750885,86.197426 339.393372,90.081520 
	C339.035431,89.940765 338.994507,89.728333 339.082184,89.619858 
	C342.928741,84.860863 359.195374,82.280281 364.763855,85.948837 
z"/>
<path fill="#CAF1F7" opacity="1.000000" stroke="none" 
	d="
M179.865875,75.699142 
	C182.798325,74.501358 186.099518,72.712296 189.513504,72.461990 
	C195.553665,72.019165 201.786652,71.947380 207.169189,76.445602 
	C202.675079,75.814720 198.000717,74.319450 193.272934,74.125359 
	C188.973923,73.948868 184.616882,75.186630 179.865875,75.699142 
z"/>
<path fill="#C4EEF6" opacity="1.000000" stroke="none" 
	d="
M249.467163,159.963516 
	C249.684235,157.354660 250.264877,154.679794 250.718948,152.588043 
	C244.829727,152.047958 239.433640,151.553101 233.863251,150.751282 
	C238.380447,150.314590 243.085342,150.357620 247.758911,149.996002 
	C251.015976,149.743973 252.606689,150.799591 251.906830,154.083649 
	C251.481735,156.078491 250.540237,157.963287 249.467163,159.963516 
z"/>
<path fill="#C4EEF5" opacity="1.000000" stroke="none" 
	d="
M266.126343,160.948578 
	C270.142853,160.280685 271.371216,157.990463 271.164185,153.879440 
	C270.987579,150.371475 271.849884,146.811188 272.513550,142.974792 
	C272.827484,147.311417 273.099091,151.958282 272.866638,156.579773 
	C272.667908,160.531357 270.736877,162.826889 266.126343,160.948578 
z"/>
<path fill="#DDF6F9" opacity="1.000000" stroke="none" 
	d="
M350.084229,161.726807 
	C357.707855,159.864914 365.457642,158.352051 373.601166,156.820801 
	C371.167053,158.271149 368.476562,160.492249 365.480438,161.039246 
	C360.493561,161.949707 355.310730,161.786758 350.084229,161.726807 
z"/>
<path fill="#DDF6F9" opacity="1.000000" stroke="none" 
	d="
M317.848450,111.747498 
	C322.365906,109.488518 327.334534,107.303963 332.667847,105.148491 
	C330.018921,111.599495 323.764587,110.835480 317.848450,111.747498 
z"/>
<path fill="#DDF6F9" opacity="1.000000" stroke="none" 
	d="
M348.286560,98.965614 
	C355.995178,94.777565 363.484406,97.052139 370.935303,101.601830 
	C370.134277,101.796577 369.044800,101.931816 368.222412,101.525909 
	C361.996826,98.453087 355.513977,97.632210 348.286560,98.965614 
z"/>
<path fill="#CAF0F7" opacity="1.000000" stroke="none" 
	d="
M310.058411,145.269073 
	C311.004791,145.459503 312.233154,145.816269 312.878601,146.633469 
	C313.826965,147.834244 314.358948,149.363907 315.068329,150.753448 
	C313.606110,151.221252 312.140320,152.083344 310.682465,152.070145 
	C308.096100,152.046722 305.514526,151.492111 302.523254,151.192780 
	C305.237579,150.850311 308.359650,150.474823 312.013000,150.035446 
	C311.406250,148.656372 310.742981,147.148849 310.058411,145.269073 
z"/>
<path fill="#DDF6F9" opacity="1.000000" stroke="none" 
	d="
M394.227966,137.842072 
	C394.216766,131.313171 394.562622,124.621544 394.979797,117.467087 
	C398.228973,123.971092 397.415070,130.847946 394.227966,137.842072 
z"/>
<path fill="#CAF1F7" opacity="1.000000" stroke="none" 
	d="
M138.576050,103.031456 
	C138.305756,104.480476 137.715637,106.004776 137.054886,107.497795 
	C135.532089,110.938629 136.471481,113.577332 139.784912,115.832230 
	C136.467957,117.964264 135.013535,115.244133 135.224869,112.970589 
	C135.536880,109.613968 137.159592,106.379196 138.576050,103.031456 
z"/>
<path fill="#DDF6F9" opacity="1.000000" stroke="none" 
	d="
M394.870361,114.953003 
	C392.579620,111.493584 390.357452,107.574715 388.100586,103.309639 
	C393.636841,105.008598 395.027313,107.341286 394.870361,114.953003 
z"/>
<path fill="#DDF6F9" opacity="1.000000" stroke="none" 
	d="
M301.746338,102.768204 
	C297.983276,103.356674 293.943146,103.636581 289.470764,103.754944 
	C293.182098,103.215477 297.325684,102.837563 301.746338,102.768204 
z"/>
<path fill="#CAF0F7" opacity="1.000000" stroke="none" 
	d="
M303.216370,160.115814 
	C307.146454,160.203857 311.169739,160.665771 315.635162,161.240692 
	C315.351013,162.130936 314.446045,163.680969 313.927307,163.560974 
	C310.343018,162.731995 306.839264,161.554901 303.216370,160.115814 
z"/>
<path fill="#DDF6F9" opacity="1.000000" stroke="none" 
	d="
M303.243225,115.261566 
	C307.058289,113.968674 311.131042,112.962593 315.604492,111.978882 
	C311.837097,113.183632 307.669006,114.366005 303.243225,115.261566 
z"/>
<path fill="#DDF6F9" opacity="1.000000" stroke="none" 
	d="
M284.898376,103.106537 
	C280.540649,102.798981 276.029205,102.173897 271.246582,101.285431 
	C275.565186,101.611038 280.154907,102.200020 284.898376,103.106537 
z"/>
<path fill="#CAF1F7" opacity="1.000000" stroke="none" 
	d="
M143.255341,116.448868 
	C144.724976,114.143105 146.443161,112.075012 148.431351,109.789078 
	C150.171066,114.856514 148.936722,116.546318 143.255341,116.448868 
z"/>
<path fill="#CAF0F7" opacity="1.000000" stroke="none" 
	d="
M327.945496,127.352219 
	C324.308563,127.458450 320.554108,127.217422 316.361206,126.850250 
	C316.622131,126.001030 317.445618,124.572960 318.000488,124.670654 
	C321.310699,125.253403 324.558929,126.188271 327.945496,127.352219 
z"/>
<path fill="#CAF0F7" opacity="1.000000" stroke="none" 
	d="
M304.760773,131.197754 
	C305.404724,134.441086 305.688660,137.834793 306.028870,141.593903 
	C302.419952,139.507278 301.876129,136.081299 304.760773,131.197754 
z"/>
<path fill="#DDF6F9" opacity="1.000000" stroke="none" 
	d="
M346.764771,126.723297 
	C344.532227,128.209381 342.058716,129.417496 339.250732,130.712341 
	C340.037781,126.876404 342.512329,125.318092 346.764771,126.723297 
z"/>
<path fill="#DDF6F9" opacity="1.000000" stroke="none" 
	d="
M287.080017,115.689896 
	C289.695465,115.274712 292.436188,115.209702 295.614014,115.286713 
	C293.102509,115.632507 290.153900,115.836281 287.080017,115.689896 
z"/>
<path fill="#DDF6F9" opacity="1.000000" stroke="none" 
	d="
M327.722748,146.235672 
	C325.331665,144.724915 323.035217,142.824081 320.578918,140.616486 
	C324.741882,139.673691 326.599945,142.331573 327.722748,146.235672 
z"/>
<path fill="#C4EEF6" opacity="1.000000" stroke="none" 
	d="
M220.711365,135.153931 
	C220.524872,138.125549 219.999710,141.249557 219.277283,144.693481 
	C219.510910,141.777710 219.941803,138.542023 220.711365,135.153931 
z"/>
<path fill="#DDF6F9" opacity="1.000000" stroke="none" 
	d="
M334.564636,138.170700 
	C334.513123,140.711258 334.163147,143.420929 333.682465,146.529190 
	C331.294220,143.857498 331.733948,141.011612 334.564636,138.170700 
z"/>
<path fill="#C4EEF6" opacity="1.000000" stroke="none" 
	d="
M232.754028,126.639526 
	C230.628647,127.964104 228.272354,129.033417 225.563095,130.158371 
	C226.195129,126.163589 229.646576,126.822830 232.754028,126.639526 
z"/>
<path fill="#DDF6F9" opacity="1.000000" stroke="none" 
	d="
M268.046906,112.449593 
	C270.146515,112.602638 272.311005,113.102737 274.715973,113.872025 
	C272.674896,113.693039 270.393341,113.244843 268.046906,112.449593 
z"/>
<path fill="#DDF6F9" opacity="1.000000" stroke="none" 
	d="
M253.002335,107.479187 
	C255.066376,107.713661 257.151520,108.355896 259.452728,109.286697 
	C257.329773,109.500061 254.405167,111.729996 253.002335,107.479187 
z"/>
<path fill="#DDF6F9" opacity="1.000000" stroke="none" 
	d="
M313.230835,100.308540 
	C310.706390,101.320557 307.756287,102.209816 304.404053,103.040352 
	C306.936310,102.049683 309.870758,101.117729 313.230835,100.308540 
z"/>
<path fill="#DDF6F9" opacity="1.000000" stroke="none" 
	d="
M383.348999,152.000641 
	C384.425751,150.403625 385.867371,148.818130 387.598877,147.094055 
	C388.427917,149.844498 387.750824,150.664612 383.348999,152.000641 
z"/>
<path fill="#C4EEF6" opacity="1.000000" stroke="none" 
	d="
M218.825806,147.205063 
	C219.660828,148.774139 220.215637,150.570114 220.729462,152.727615 
	C217.517136,152.134140 217.688553,149.912918 218.825806,147.205063 
z"/>
<path fill="#CAF1F7" opacity="1.000000" stroke="none" 
	d="
M243.026627,102.399857 
	C245.017914,103.069656 247.057846,104.086594 249.273102,105.394325 
	C247.324051,104.705750 245.199661,103.726372 243.026627,102.399857 
z"/>
<path fill="#DDF6F9" opacity="1.000000" stroke="none" 
	d="
M341.022278,159.475342 
	C343.064392,159.730576 345.177246,160.330856 347.634705,161.063354 
	C345.683899,160.737183 343.388428,160.278793 341.022278,159.475342 
z"/>
<path fill="#CAF0F7" opacity="1.000000" stroke="none" 
	d="
M301.659180,152.266418 
	C302.249420,154.090118 302.564209,156.170761 302.815338,158.649307 
	C302.295715,156.872604 301.839752,154.697968 301.659180,152.266418 
z"/>
<path fill="#C4EEF5" opacity="1.000000" stroke="none" 
	d="
M268.975647,127.163368 
	C267.329498,127.587830 265.536285,127.710304 263.314148,127.681168 
	C264.866364,127.306824 266.847443,127.084099 268.975647,127.163368 
z"/>
<path fill="#CAF1F7" opacity="1.000000" stroke="none" 
	d="
M236.053802,97.286133 
	C237.651672,98.036125 239.279633,99.151558 241.078461,100.558266 
	C239.527527,99.783546 237.805710,98.717552 236.053802,97.286133 
z"/>
<path fill="#DDF6F9" opacity="1.000000" stroke="none" 
	d="
M328.825378,94.160843 
	C327.061432,95.178352 324.912720,96.155640 322.379517,97.114731 
	C324.143555,96.104568 326.292084,95.112595 328.825378,94.160843 
z"/>
<path fill="#CAF1F7" opacity="1.000000" stroke="none" 
	d="
M230.052292,93.307068 
	C231.690720,94.016182 233.351318,95.093529 235.218475,96.440979 
	C233.641525,95.699150 231.857986,94.687225 230.052292,93.307068 
z"/>
<path fill="#C4EEF5" opacity="1.000000" stroke="none" 
	d="
M276.068909,128.206390 
	C274.990326,128.893372 273.718201,132.945358 272.072998,128.152466 
	C273.280975,127.907745 274.505341,128.004059 276.068909,128.206390 
z"/>
<path fill="#CAF1F7" opacity="1.000000" stroke="none" 
	d="
M144.687637,94.031845 
	C144.003708,95.396744 142.956223,96.789574 141.609619,98.335121 
	C142.315048,97.011818 143.319565,95.535789 144.687637,94.031845 
z"/>
<path fill="#C4EEF5" opacity="1.000000" stroke="none" 
	d="
M293.990723,128.614090 
	C292.509949,128.438248 290.988495,127.928917 289.240997,127.166458 
	C290.660004,127.369087 292.305023,127.824844 293.990723,128.614090 
z"/>
<path fill="#DDF6F9" opacity="1.000000" stroke="none" 
	d="
M360.942017,127.353271 
	C359.277740,127.465111 357.514313,127.246040 355.395996,126.877380 
	C356.975037,126.825989 358.908966,126.924187 360.942017,127.353271 
z"/>
<path fill="#C4EEF5" opacity="1.000000" stroke="none" 
	d="
M258.141815,157.021637 
	C259.216400,158.010971 260.001038,159.136047 261.082764,160.482132 
	C258.508179,161.208405 256.270325,161.083038 258.141815,157.021637 
z"/>
<path fill="#CAF1F7" opacity="1.000000" stroke="none" 
	d="
M162.299759,90.945488 
	C162.695633,89.624146 163.447678,88.279587 164.513794,86.816711 
	C164.103882,88.106346 163.379913,89.514305 162.299759,90.945488 
z"/>
<path fill="#DDF6F9" opacity="1.000000" stroke="none" 
	d="
M277.043182,114.723221 
	C278.126770,114.459000 279.307983,114.497292 280.745483,114.781738 
	C279.714752,115.027168 278.427795,115.026443 277.043182,114.723221 
z"/>
<path fill="#C4EEF6" opacity="1.000000" stroke="none" 
	d="
M228.047821,160.348740 
	C229.434967,160.281616 230.879929,160.563828 232.667603,160.991821 
	C231.375427,160.991089 229.740540,160.844589 228.047821,160.348740 
z"/>
<path fill="#DDF6F9" opacity="1.000000" stroke="none" 
	d="
M329.048340,150.872498 
	C328.423004,149.971664 328.106812,148.867493 327.774719,147.413116 
	C328.291718,148.264999 328.824615,149.467087 329.048340,150.872498 
z"/>
<path fill="#DDF6F9" opacity="1.000000" stroke="none" 
	d="
M261.095123,110.252975 
	C262.429474,110.232193 263.824463,110.617943 265.438721,111.295532 
	C264.157257,111.278091 262.656494,110.968796 261.095123,110.252975 
z"/>
<path fill="#DDF6F9" opacity="1.000000" stroke="none" 
	d="
M365.919678,130.789734 
	C364.881256,130.392624 363.843475,129.613358 362.648163,128.540283 
	C363.633881,128.966858 364.777100,129.687210 365.919678,130.789734 
z"/>
<path fill="#DDF6F9" opacity="1.000000" stroke="none" 
	d="
M339.128113,103.161346 
	C339.784973,102.333580 340.603271,101.761368 341.732788,101.224472 
	C341.125885,101.978821 340.207703,102.697853 339.128113,103.161346 
z"/>
<path fill="#DDF6F9" opacity="1.000000" stroke="none" 
	d="
M319.606354,97.969757 
	C318.554230,98.692337 317.130341,99.394821 315.354218,100.093750 
	C316.412842,99.376678 317.823730,98.663162 319.606354,97.969757 
z"/>
<path fill="#DDF6F9" opacity="1.000000" stroke="none" 
	d="
M377.088501,107.238434 
	C378.074615,107.656593 379.056854,108.433754 380.109283,109.525665 
	C379.147858,109.092758 378.116241,108.345100 377.088501,107.238434 
z"/>
<path fill="#DDF6F9" opacity="1.000000" stroke="none" 
	d="
M382.647339,139.021957 
	C382.215729,139.988983 381.442139,140.987381 380.334045,142.015198 
	C380.768127,141.047516 381.536743,140.050415 382.647339,139.021957 
z"/>
<path fill="#DDF6F9" opacity="1.000000" stroke="none" 
	d="
M374.062988,104.242584 
	C375.032806,104.679749 376.012665,105.472229 377.056396,106.586159 
	C376.104523,106.137711 375.088776,105.367805 374.062988,104.242584 
z"/>
<path fill="#DDF6F9" opacity="1.000000" stroke="none" 
	d="
M336.660431,90.993561 
	C335.870026,91.581200 334.725800,92.142395 333.261810,92.620773 
	C334.063568,92.014343 335.185089,91.490738 336.660431,90.993561 
z"/>
<path fill="#DDF6F9" opacity="1.000000" stroke="none" 
	d="
M336.592102,133.062134 
	C336.520477,134.260086 336.082703,135.526733 335.374725,137.000198 
	C335.478333,135.848282 335.852173,134.489548 336.592102,133.062134 
z"/>
<path fill="#DDF6F9" opacity="1.000000" stroke="none" 
	d="
M268.833679,99.972496 
	C267.603241,99.866348 266.212097,99.408867 264.605896,98.653305 
	C265.818207,98.777191 267.245605,99.199173 268.833679,99.972496 
z"/>
<path fill="#C4EEF5" opacity="1.000000" stroke="none" 
	d="
M280.794678,126.675125 
	C280.182312,127.236954 279.381927,127.559799 278.250183,127.802948 
	C278.814789,127.294212 279.710693,126.865181 280.794678,126.675125 
z"/>
<path fill="#C4EEF6" opacity="1.000000" stroke="none" 
	d="
M244.999207,127.179108 
	C243.963699,127.352119 242.803558,127.242455 241.316574,126.984848 
	C242.284668,126.856743 243.579620,126.876587 244.999207,127.179108 
z"/>
<path fill="#C4EEF5" opacity="1.000000" stroke="none" 
	d="
M282.554932,159.316910 
	C283.493713,159.461716 284.227600,159.844772 285.187500,160.444168 
	C284.392365,160.292053 283.371185,159.923615 282.554932,159.316910 
z"/>
<path fill="#CAF1F7" opacity="1.000000" stroke="none" 
	d="
M167.846222,84.712570 
	C168.125198,83.841194 168.780304,83.048576 169.730072,82.158218 
	C169.423950,82.970764 168.823151,83.881042 167.846222,84.712570 
z"/>
<path fill="#DDF6F9" opacity="1.000000" stroke="none" 
	d="
M388.037781,102.588470 
	C387.389557,102.166374 386.739532,101.396378 386.056946,100.310623 
	C386.694885,100.743431 387.365417,101.491997 388.037781,102.588470 
z"/>
<path fill="#DDF6F9" opacity="1.000000" stroke="none" 
	d="
M333.672729,149.199341 
	C334.286682,149.798004 334.671295,150.565475 335.010559,151.668152 
	C334.457977,151.124954 333.950714,150.246552 333.672729,149.199341 
z"/>
<path fill="#CAF1F7" opacity="1.000000" stroke="none" 
	d="
M171.915222,80.789597 
	C172.174179,80.183037 172.784744,79.641434 173.711517,79.093079 
	C173.440765,79.675743 172.853806,80.265152 171.915222,80.789597 
z"/>
<path fill="#C4EEF6" opacity="1.000000" stroke="none" 
	d="
M224.047806,157.322662 
	C224.710815,157.370026 225.420380,157.767075 226.255554,158.457535 
	C225.618896,158.391403 224.856628,158.031876 224.047806,157.322662 
z"/>
<path fill="#DDF6F9" opacity="1.000000" stroke="none" 
	d="
M336.179260,154.929260 
	C336.829742,155.123947 337.442200,155.699295 338.150177,156.580078 
	C337.544189,156.360291 336.842712,155.835098 336.179260,154.929260 
z"/>
<path fill="#CAF1F7" opacity="1.000000" stroke="none" 
	d="
M209.074326,78.316032 
	C209.750305,78.336906 210.467239,78.720764 211.345612,79.374588 
	C210.709793,79.322701 209.912552,79.000862 209.074326,78.316032 
z"/>
<path fill="#DDF6F9" opacity="1.000000" stroke="none" 
	d="
M376.829529,155.806702 
	C377.136841,155.258423 377.781158,154.771851 378.737305,154.336380 
	C378.421631,154.881134 377.794067,155.374771 376.829529,155.806702 
z"/>
<path fill="#DDF6F9" opacity="1.000000" stroke="none" 
	d="
M327.174133,137.051270 
	C327.544952,136.664307 327.885406,136.604874 328.477539,136.605835 
	C328.601715,137.260300 328.474213,137.854401 328.346680,138.448486 
	C327.945679,138.091934 327.544708,137.735382 327.174133,137.051270 
z"/>
<path fill="#CAF1F7" opacity="1.000000" stroke="none" 
	d="
M225.010437,89.373352 
	C225.620789,89.490257 226.272308,89.928230 226.976608,90.676704 
	C226.370117,90.556282 225.710846,90.125351 225.010437,89.373352 
z"/>
<path fill="#CAF1F7" opacity="1.000000" stroke="none" 
	d="
M214.084808,81.227264 
	C214.739380,81.308975 215.430038,81.747063 216.232574,82.490829 
	C215.603241,82.392220 214.862076,81.987923 214.084808,81.227264 
z"/>
<path fill="#DDF6F9" opacity="1.000000" stroke="none" 
	d="
M374.951599,90.435493 
	C374.284332,90.454712 373.535889,90.139473 372.634705,89.541199 
	C373.278137,89.539131 374.074280,89.820076 374.951599,90.435493 
z"/>
<path fill="#C4EEF5" opacity="1.000000" stroke="none" 
	d="
M295.830017,130.867218 
	C295.225189,130.661301 294.671814,130.118561 294.085999,129.271606 
	C294.662842,129.488388 295.272186,130.009399 295.830017,130.867218 
z"/>
<path fill="#C4EEF6" opacity="1.000000" stroke="none" 
	d="
M250.964874,130.677216 
	C250.332413,130.577316 249.664948,130.148773 248.943054,129.406784 
	C249.569061,129.511734 250.249466,129.930145 250.964874,130.677216 
z"/>
<path fill="#C4EEF6" opacity="1.000000" stroke="none" 
	d="
M248.917908,128.814926 
	C248.366486,128.906876 247.828049,128.700531 247.144669,128.237991 
	C247.643448,128.160065 248.287155,128.338348 248.917908,128.814926 
z"/>
<path fill="#CAF0F7" opacity="1.000000" stroke="none" 
	d="
M311.857330,126.756584 
	C311.491852,127.245750 310.984985,127.513367 310.191467,127.675964 
	C310.508545,127.225647 311.112244,126.880348 311.857330,126.756584 
z"/>
<path fill="#CAF1F7" opacity="1.000000" stroke="none" 
	d="
M155.297424,99.956848 
	C155.340073,99.313568 155.728561,98.633759 156.403198,97.843330 
	C156.340652,98.461914 155.991943,99.191116 155.297424,99.956848 
z"/>
<path fill="#CAF1F7" opacity="1.000000" stroke="none" 
	d="
M150.528534,106.986427 
	C150.513519,106.330948 150.833420,105.597374 151.424271,104.704758 
	C151.417969,105.333267 151.140717,106.120804 150.528534,106.986427 
z"/>
<path fill="#DDF6F9" opacity="1.000000" stroke="none" 
	d="
M343.237854,100.967972 
	C343.666107,100.499893 344.469666,100.068161 345.628540,99.633194 
	C345.193665,100.088081 344.403381,100.546196 343.237854,100.967972 
z"/>
<path fill="#DDF6F9" opacity="1.000000" stroke="none" 
	d="
M369.804474,87.732864 
	C369.131744,87.854713 368.256561,87.699501 367.163422,87.286179 
	C367.830963,87.170639 368.716522,87.313225 369.804474,87.732864 
z"/>
<path fill="#DDF6F9" opacity="1.000000" stroke="none" 
	d="
M330.848602,93.070335 
	C330.706543,93.464279 330.231201,93.835716 329.445068,94.224709 
	C329.594666,93.844116 330.054993,93.445976 330.848602,93.070335 
z"/>
<path fill="#DDF6F9" opacity="1.000000" stroke="none" 
	d="
M371.586853,148.254120 
	C371.234619,148.078415 371.167389,147.868088 371.051941,147.330093 
	C371.466919,147.002441 371.930145,147.002441 372.739441,147.039398 
	C372.680939,147.457397 372.276398,147.838455 371.586853,148.254120 
z"/>
<path fill="#CAF1F7" opacity="1.000000" stroke="none" 
	d="
M157.976929,96.659973 
	C157.909576,96.191467 158.161148,95.678764 158.680481,95.044586 
	C158.730774,95.487320 158.513306,96.051544 157.976929,96.659973 
z"/>
<path fill="#CAF1F7" opacity="1.000000" stroke="none" 
	d="
M219.231201,85.090469 
	C219.676544,85.009979 220.220627,85.224892 220.886307,85.716789 
	C220.448593,85.791145 219.889252,85.588516 219.231201,85.090469 
z"/>
<path fill="#C4EEF5" opacity="1.000000" stroke="none" 
	d="
M273.212982,141.868530 
	C273.147339,141.449432 273.338440,140.898682 273.824921,140.269470 
	C273.903442,140.706299 273.686584,141.221588 273.212982,141.868530 
z"/>
<path fill="#DDF6F9" opacity="1.000000" stroke="none" 
	d="
M380.231934,153.968521 
	C380.382233,153.603806 380.851746,153.249954 381.628052,152.878906 
	C381.473602,153.234268 381.012360,153.606827 380.231934,153.968521 
z"/>
<path fill="#CAF1F7" opacity="1.000000" stroke="none" 
	d="
M223.235352,88.067001 
	C223.676178,88.009285 224.195557,88.250145 224.831909,88.763336 
	C224.403885,88.812302 223.858887,88.588943 223.235352,88.067001 
z"/>
<path fill="#C4EEF6" opacity="1.000000" stroke="none" 
	d="
M221.273315,154.860519 
	C221.741364,154.860855 222.221008,155.180359 222.769852,155.785095 
	C222.321014,155.773438 221.802963,155.476562 221.273315,154.860519 
z"/>
<path fill="#DDF6F9" opacity="1.000000" stroke="none" 
	d="
M334.919495,104.840721 
	C335.134521,104.468826 335.707062,104.156006 336.613464,103.837845 
	C336.390503,104.188278 335.833771,104.544044 334.919495,104.840721 
z"/>
<path fill="#CAF1F7" opacity="1.000000" stroke="none" 
	d="
M147.959991,89.221786 
	C148.036957,89.677803 147.807175,90.231697 147.301605,90.918106 
	C147.234970,90.473640 147.444107,89.896652 147.959991,89.221786 
z"/>
<path fill="#C4EEF6" opacity="1.000000" stroke="none" 
	d="
M245.155762,161.341034 
	C245.422958,161.023148 245.861542,160.908447 246.640289,160.837112 
	C246.429337,161.101730 245.878235,161.322968 245.155762,161.341034 
z"/>
<path fill="#CAF1F7" opacity="1.000000" stroke="none" 
	d="
M140.060043,100.288467 
	C140.183807,100.779114 139.965576,101.372948 139.490219,102.161339 
	C139.394745,101.701149 139.556396,101.046394 140.060043,100.288467 
z"/>
<path fill="#CAF1F7" opacity="1.000000" stroke="none" 
	d="
M153.121490,102.830940 
	C153.069199,102.410957 153.286484,101.887825 153.785049,101.287476 
	C153.841248,101.716103 153.616165,102.221947 153.121490,102.830940 
z"/>
<path fill="#CAF0F7" opacity="1.000000" stroke="none" 
	d="
M320.964661,160.804993 
	C321.168945,160.404419 321.727905,160.078003 322.619446,159.755219 
	C322.407806,160.132294 321.863586,160.505737 320.964661,160.804993 
z"/>
<path fill="#CAF0F7" opacity="1.000000" stroke="none" 
	d="
M326.000366,157.802155 
	C325.972839,157.356903 326.250763,156.853912 326.805420,156.252686 
	C326.823364,156.684448 326.564606,157.214432 326.000366,157.802155 
z"/>
<path fill="#DDF6F9" opacity="1.000000" stroke="none" 
	d="
M382.131653,152.858902 
	C382.075287,152.638702 382.274780,152.362579 382.733307,152.034805 
	C382.790771,152.256424 382.589142,152.529694 382.131653,152.858902 
z"/>
<path fill="#DDF6F9" opacity="1.000000" stroke="none" 
	d="
M270.802185,100.769775 
	C270.592407,100.949844 270.197662,100.871864 269.599487,100.560730 
	C269.803131,100.388954 270.210175,100.450340 270.802185,100.769775 
z"/>
<path fill="#CAF1F7" opacity="1.000000" stroke="none" 
	d="
M156.999680,97.702423 
	C156.879150,97.445763 157.036682,97.159805 157.432190,96.789902 
	C157.539337,97.028351 157.408539,97.350739 156.999680,97.702423 
z"/>
<path fill="#CAF0F7" opacity="1.000000" stroke="none" 
	d="
M318.089935,161.304718 
	C318.147125,161.083420 318.311829,161.013962 318.741913,160.982910 
	C318.737366,161.166382 318.467438,161.311447 318.089935,161.304718 
z"/>
<path fill="#DDF6F9" opacity="1.000000" stroke="none" 
	d="
M380.179749,110.096100 
	C380.420349,110.018326 380.714355,110.206421 381.060242,110.662323 
	C380.819153,110.740738 380.526184,110.551353 380.179749,110.096100 
z"/>
<path fill="#CAF1F7" opacity="1.000000" stroke="none" 
	d="
M218.108276,84.234070 
	C218.317596,84.114464 218.634262,84.237030 219.059937,84.597878 
	C218.851181,84.716194 218.533386,84.596222 218.108276,84.234070 
z"/>
<path fill="#DDF6F9" opacity="1.000000" stroke="none" 
	d="
M321.168152,97.210670 
	C321.177429,97.465691 320.886169,97.722641 320.296265,97.981171 
	C320.287628,97.726036 320.577637,97.469315 321.168152,97.210670 
z"/>
<path fill="#CAF1F7" opacity="1.000000" stroke="none" 
	d="
M149.204208,108.870865 
	C149.073029,108.655647 149.200790,108.310204 149.575516,107.822929 
	C149.702698,108.034271 149.582916,108.387451 149.204208,108.870865 
z"/>
<path fill="#CAF1F7" opacity="1.000000" stroke="none" 
	d="
M250.193909,106.124435 
	C250.410721,105.948143 250.784164,106.044792 251.348297,106.369141 
	C251.142838,106.530350 250.746674,106.463860 250.193909,106.124435 
z"/>
<path fill="#DDF6F9" opacity="1.000000" stroke="none" 
	d="
M335.175049,152.951996 
	C335.421600,152.920822 335.695770,153.175461 335.991333,153.716583 
	C335.742706,153.748001 335.472656,153.492905 335.175049,152.951996 
z"/>
<path fill="#DDF6F9" opacity="1.000000" stroke="none" 
	d="
M385.931335,99.751450 
	C385.625427,99.977127 385.359436,99.806641 385.170044,99.215569 
	C385.450531,99.060051 385.692108,99.246811 385.931335,99.751450 
z"/>
<path fill="#DDF6F9" opacity="1.000000" stroke="none" 
	d="
M328.162598,154.807037 
	C328.009644,154.582642 328.135406,154.207550 328.503998,153.648529 
	C328.644989,153.861832 328.543152,154.259079 328.162598,154.807037 
z"/>
<path fill="#CAF1F7" opacity="1.000000" stroke="none" 
	d="
M212.178177,80.127914 
	C212.402496,79.967270 212.768509,80.085197 213.311188,80.440224 
	C213.098526,80.587051 212.709213,80.496765 212.178177,80.127914 
z"/>
<path fill="#DDF6F9" opacity="1.000000" stroke="none" 
	d="
M380.898315,94.738968 
	C380.698486,94.828835 380.387939,94.684975 379.984436,94.291176 
	C380.190155,94.195908 380.488892,94.350578 380.898315,94.738968 
z"/>
<path fill="#DDF6F9" opacity="1.000000" stroke="none" 
	d="
M371.177734,102.160873 
	C371.402374,102.036041 371.747437,102.184174 372.236938,102.584030 
	C372.020294,102.701782 371.659241,102.567810 371.177734,102.160873 
z"/>
<path fill="#DDF6F9" opacity="1.000000" stroke="none" 
	d="
M374.770203,156.751343 
	C374.758545,156.480453 375.071136,156.218307 375.694702,155.933044 
	C375.701965,156.193298 375.398224,156.476685 374.770203,156.751343 
z"/>
<path fill="#DDF6F9" opacity="1.000000" stroke="none" 
	d="
M371.852173,88.785873 
	C371.640991,88.919502 371.279114,88.794174 370.753662,88.422905 
	C370.960541,88.293610 371.330994,88.410263 371.852173,88.785873 
z"/>
<path fill="#C4EEF6" opacity="1.000000" stroke="none" 
	d="
M224.913971,130.216949 
	C224.975769,130.470932 224.763931,130.747879 224.283478,131.059052 
	C224.223343,130.808807 224.431824,130.524353 224.913971,130.216949 
z"/>
<path fill="#C4EEF6" opacity="1.000000" stroke="none" 
	d="
M252.677185,132.139526 
	C252.400009,132.245117 252.097290,132.023376 251.664474,131.548035 
	C251.906799,131.467010 252.279236,131.639603 252.677185,132.139526 
z"/>
<path fill="#CAF1F7" opacity="1.000000" stroke="none" 
	d="
M145.971039,92.227737 
	C146.106827,92.478157 145.939575,92.822815 145.518738,93.316460 
	C145.399429,93.084290 145.533707,92.703133 145.971039,92.227737 
z"/>
<path fill="#C4EEF6" opacity="1.000000" stroke="none" 
	d="
M253.762695,134.078247 
	C253.507477,134.098282 253.267014,133.825729 253.000732,133.275482 
	C253.242432,133.260406 253.509933,133.523041 253.762695,134.078247 
z"/>
<path fill="#CAF0F7" opacity="1.000000" stroke="none" 
	d="
M329.357208,133.920578 
	C329.129456,133.853302 329.056274,133.682281 329.053009,133.240921 
	C329.252563,133.252670 329.382172,133.534744 329.357208,133.920578 
z"/>
<path fill="#CAF0F7" opacity="1.000000" stroke="none" 
	d="
M329.171844,128.909149 
	C328.990692,129.005890 328.762115,128.594284 328.762451,128.359070 
	C328.959503,128.353378 329.156250,128.582901 329.171844,128.909149 
z"/>
<path fill="#DDF6F9" opacity="1.000000" stroke="none" 
	d="
M338.194519,90.214737 
	C338.206085,90.470901 337.908020,90.721878 337.312866,90.995895 
	C337.305511,90.749146 337.595215,90.479340 338.194519,90.214737 
z"/>
<path fill="#CAF1F7" opacity="1.000000" stroke="none" 
	d="
M159.923752,93.737831 
	C159.814926,93.473686 160.019684,93.149017 160.492950,92.702919 
	C160.586731,92.946762 160.412033,93.312027 159.923752,93.737831 
z"/>
<path fill="#CAF0F7" opacity="1.000000" stroke="none" 
	d="
M318.581787,137.272781 
	C318.397949,137.706406 318.374420,137.647278 318.239990,137.404877 
	C317.966309,137.009506 317.827026,136.856552 317.687744,136.703598 
	C317.935303,136.444580 318.182892,136.185562 318.707153,135.924683 
	C318.911133,136.228271 318.838379,136.533722 318.581787,137.272781 
z"/>
<path fill="#DDF6F9" opacity="1.000000" stroke="none" 
	d="
M321.084290,135.981567 
	C321.176392,135.715439 321.333832,135.659897 321.732208,135.672028 
	C321.698608,135.890518 321.424072,136.041321 321.084290,135.981567 
z"/>
<path fill="#DDF6F9" opacity="1.000000" stroke="none" 
	d="
M325.093536,136.179810 
	C325.165558,135.896240 325.335052,135.846649 325.750916,136.140457 
	C325.997406,136.656860 325.997498,136.829865 325.997559,137.002853 
	C325.728699,136.806503 325.459869,136.610153 325.093536,136.179810 
z"/>
<path fill="#CAF0F7" opacity="1.000000" stroke="none" 
	d="
M326.310120,136.960510 
	C325.997498,136.829865 325.997406,136.656860 326.002197,136.224304 
	C326.321960,136.059662 326.636810,136.154572 327.079590,136.465546 
	C327.012573,136.760483 326.817627,136.839325 326.310120,136.960510 
z"/>
<path fill="#CAF0F7" opacity="1.000000" stroke="none" 
	d="
M328.882965,136.697174 
	C328.685333,136.620010 328.754700,136.242188 328.911011,136.130676 
	C329.199646,136.221024 329.331909,136.422882 329.464203,136.624741 
	C329.336334,136.674622 329.208466,136.724487 328.882965,136.697174 
z"/>
<path fill="#DDF6F9" opacity="1.000000" stroke="none" 
	d="
M381.860107,95.418831 
	C381.976318,95.574059 381.544739,95.636688 381.544739,95.636688 
	C381.544739,95.636688 381.179749,95.398003 381.104797,95.192642 
	C381.301025,94.993881 381.539032,95.085983 381.860107,95.418831 
z"/>
<path fill="#CAF1F7" opacity="1.000000" stroke="none" 
	d="
M177.172485,76.934814 
	C177.122406,76.713310 177.306671,76.436607 177.750519,76.161003 
	C177.915390,76.490669 177.714294,76.729843 177.172485,76.934814 
z"/>
<path fill="#CAF0F7" opacity="1.000000" stroke="none" 
	d="
M319.853149,139.895248 
	C319.608124,140.019485 319.260895,139.859192 318.797302,139.427765 
	C319.037598,139.307999 319.394257,139.459351 319.853149,139.895248 
z"/>
<path fill="#DDF6F9" opacity="1.000000" stroke="none" 
	d="
M393.119202,139.775635 
	C392.971863,139.539322 393.113983,139.171295 393.508484,138.634171 
	C393.643463,138.858017 393.526062,139.250961 393.119202,139.775635 
z"/>
<path fill="#DDF6F9" opacity="1.000000" stroke="none" 
	d="
M392.246307,140.887680 
	C392.138245,140.683975 392.265472,140.365646 392.636902,139.943039 
	C392.747894,140.150177 392.614746,140.461609 392.246307,140.887680 
z"/>
<path fill="#DDF6F9" opacity="1.000000" stroke="none" 
	d="
M379.204224,142.244537 
	C379.259399,142.521790 378.983521,142.821182 378.405823,143.195251 
	C378.360413,142.935516 378.616760,142.601105 379.204224,142.244537 
z"/>
<path fill="#DDF6F9" opacity="1.000000" stroke="none" 
	d="
M391.097168,142.765259 
	C390.960693,142.526108 391.117737,142.171524 391.526672,141.656296 
	C391.649231,141.880356 391.519958,142.265091 391.097168,142.765259 
z"/>
<path fill="#CAF1F7" opacity="1.000000" stroke="none" 
	d="
M222.146149,87.164474 
	C222.372101,87.046486 222.685104,87.186226 223.097931,87.571304 
	C222.876236,87.685165 222.554733,87.553688 222.146149,87.164474 
z"/>
<path fill="#DDF6F9" opacity="1.000000" stroke="none" 
	d="
M390.131409,143.835358 
	C390.029297,143.606628 390.188446,143.297043 390.602692,142.898438 
	C390.702759,143.124466 390.547729,143.439468 390.131409,143.835358 
z"/>
<path fill="#CAF0F7" opacity="1.000000" stroke="none" 
	d="
M308.228577,144.048187 
	C308.472137,143.896088 308.821808,144.043396 309.336700,144.429718 
	C309.112823,144.561691 308.723755,144.454636 308.228577,144.048187 
z"/>
<path fill="#DDF6F9" opacity="1.000000" stroke="none" 
	d="
M389.243988,144.891006 
	C389.144989,144.686066 389.280090,144.371750 389.662415,143.966187 
	C389.765808,144.177170 389.621918,144.479401 389.243988,144.891006 
z"/>
<path fill="#CAF1F7" opacity="1.000000" stroke="none" 
	d="
M221.096252,86.236038 
	C221.308975,86.140709 221.613205,86.290146 222.004120,86.687317 
	C221.789795,86.783630 221.488800,86.632217 221.096252,86.236038 
z"/>
<path fill="#DDF6F9" opacity="1.000000" stroke="none" 
	d="
M374.115662,146.202637 
	C374.151978,146.455292 373.886810,146.727127 373.335205,147.047394 
	C373.303925,146.804489 373.559052,146.513168 374.115662,146.202637 
z"/>
<path fill="#D3F3F8" opacity="1.000000" stroke="none" 
	d="
M347.594849,137.702637 
	C349.709290,136.257919 351.692047,134.354523 353.644226,134.385422 
	C354.976532,134.406494 356.266113,137.128830 357.104767,139.224487 
	C353.566406,139.117752 349.922424,142.607498 347.594849,137.702637 
z"/>
<path fill="#DDF6F9" opacity="1.000000" stroke="none" 
	d="
M370.292969,149.116943 
	C370.235382,148.857864 370.459625,148.566452 370.969360,148.252136 
	C371.028198,148.514359 370.801514,148.799469 370.292969,149.116943 
z"/>
<path fill="#D6F5FA" opacity="1.000000" stroke="none" 
	d="
M232.533813,139.210510 
	C233.033905,135.362854 235.182495,133.269699 238.600082,134.238297 
	C240.327454,134.727875 241.530731,137.066589 242.970978,138.569229 
	C242.585114,139.115021 242.199265,139.660797 241.813400,140.206589 
	C238.768158,139.996216 235.722916,139.785843 232.533813,139.210510 
z"/>
<path fill="#CAF0F7" opacity="1.000000" stroke="none" 
	d="
M318.257263,137.433151 
	C318.056122,137.501404 317.703308,137.298965 317.519135,136.900070 
	C317.827026,136.856552 317.966309,137.009506 318.257263,137.433151 
z"/>
</svg>